%TF.GenerationSoftware,KiCad,Pcbnew,9.0.0*%
%TF.CreationDate,2025-03-17T21:04:27+02:00*%
%TF.ProjectId,dragino_esp,64726167-696e-46f5-9f65-73702e6b6963,rev?*%
%TF.SameCoordinates,Original*%
%TF.FileFunction,Legend,Top*%
%TF.FilePolarity,Positive*%
%FSLAX46Y46*%
G04 Gerber Fmt 4.6, Leading zero omitted, Abs format (unit mm)*
G04 Created by KiCad (PCBNEW 9.0.0) date 2025-03-17 21:04:27*
%MOMM*%
%LPD*%
G01*
G04 APERTURE LIST*
%ADD10C,0.150000*%
%ADD11C,0.250000*%
%ADD12C,0.300000*%
%ADD13C,0.120000*%
%ADD14C,0.000000*%
G04 APERTURE END LIST*
D10*
X148320000Y-61980000D02*
X154520000Y-61980000D01*
X154520000Y-84760000D01*
X148320000Y-84760000D01*
X148320000Y-61980000D01*
D11*
X149209619Y-86343333D02*
X149923904Y-86343333D01*
X149923904Y-86343333D02*
X150066761Y-86390952D01*
X150066761Y-86390952D02*
X150162000Y-86486190D01*
X150162000Y-86486190D02*
X150209619Y-86629047D01*
X150209619Y-86629047D02*
X150209619Y-86724285D01*
X149209619Y-85962380D02*
X149209619Y-85295714D01*
X149209619Y-85295714D02*
X150209619Y-85724285D01*
D12*
X122778572Y-72369757D02*
X122635715Y-72298328D01*
X122635715Y-72298328D02*
X122421429Y-72298328D01*
X122421429Y-72298328D02*
X122207143Y-72369757D01*
X122207143Y-72369757D02*
X122064286Y-72512614D01*
X122064286Y-72512614D02*
X121992857Y-72655471D01*
X121992857Y-72655471D02*
X121921429Y-72941185D01*
X121921429Y-72941185D02*
X121921429Y-73155471D01*
X121921429Y-73155471D02*
X121992857Y-73441185D01*
X121992857Y-73441185D02*
X122064286Y-73584042D01*
X122064286Y-73584042D02*
X122207143Y-73726900D01*
X122207143Y-73726900D02*
X122421429Y-73798328D01*
X122421429Y-73798328D02*
X122564286Y-73798328D01*
X122564286Y-73798328D02*
X122778572Y-73726900D01*
X122778572Y-73726900D02*
X122850000Y-73655471D01*
X122850000Y-73655471D02*
X122850000Y-73155471D01*
X122850000Y-73155471D02*
X122564286Y-73155471D01*
X123707143Y-72298328D02*
X123707143Y-72655471D01*
X123350000Y-72512614D02*
X123707143Y-72655471D01*
X123707143Y-72655471D02*
X124064286Y-72512614D01*
X123492857Y-72941185D02*
X123707143Y-72655471D01*
X123707143Y-72655471D02*
X123921429Y-72941185D01*
X124850000Y-72298328D02*
X124850000Y-72655471D01*
X124492857Y-72512614D02*
X124850000Y-72655471D01*
X124850000Y-72655471D02*
X125207143Y-72512614D01*
X124635714Y-72941185D02*
X124850000Y-72655471D01*
X124850000Y-72655471D02*
X125064286Y-72941185D01*
X125992857Y-72298328D02*
X125992857Y-72655471D01*
X125635714Y-72512614D02*
X125992857Y-72655471D01*
X125992857Y-72655471D02*
X126350000Y-72512614D01*
X125778571Y-72941185D02*
X125992857Y-72655471D01*
X125992857Y-72655471D02*
X126207143Y-72941185D01*
X122992856Y-73798328D02*
X122278570Y-73798328D01*
X122278570Y-73798328D02*
X122278570Y-72298328D01*
X123778571Y-72298328D02*
X124064285Y-72298328D01*
X124064285Y-72298328D02*
X124207142Y-72369757D01*
X124207142Y-72369757D02*
X124349999Y-72512614D01*
X124349999Y-72512614D02*
X124421428Y-72798328D01*
X124421428Y-72798328D02*
X124421428Y-73298328D01*
X124421428Y-73298328D02*
X124349999Y-73584042D01*
X124349999Y-73584042D02*
X124207142Y-73726900D01*
X124207142Y-73726900D02*
X124064285Y-73798328D01*
X124064285Y-73798328D02*
X123778571Y-73798328D01*
X123778571Y-73798328D02*
X123635714Y-73726900D01*
X123635714Y-73726900D02*
X123492856Y-73584042D01*
X123492856Y-73584042D02*
X123421428Y-73298328D01*
X123421428Y-73298328D02*
X123421428Y-72798328D01*
X123421428Y-72798328D02*
X123492856Y-72512614D01*
X123492856Y-72512614D02*
X123635714Y-72369757D01*
X123635714Y-72369757D02*
X123778571Y-72298328D01*
X125850000Y-72369757D02*
X125707143Y-72298328D01*
X125707143Y-72298328D02*
X125492857Y-72298328D01*
X125492857Y-72298328D02*
X125278571Y-72369757D01*
X125278571Y-72369757D02*
X125135714Y-72512614D01*
X125135714Y-72512614D02*
X125064285Y-72655471D01*
X125064285Y-72655471D02*
X124992857Y-72941185D01*
X124992857Y-72941185D02*
X124992857Y-73155471D01*
X124992857Y-73155471D02*
X125064285Y-73441185D01*
X125064285Y-73441185D02*
X125135714Y-73584042D01*
X125135714Y-73584042D02*
X125278571Y-73726900D01*
X125278571Y-73726900D02*
X125492857Y-73798328D01*
X125492857Y-73798328D02*
X125635714Y-73798328D01*
X125635714Y-73798328D02*
X125850000Y-73726900D01*
X125850000Y-73726900D02*
X125921428Y-73655471D01*
X125921428Y-73655471D02*
X125921428Y-73155471D01*
X125921428Y-73155471D02*
X125635714Y-73155471D01*
X126850000Y-72298328D02*
X127135714Y-72298328D01*
X127135714Y-72298328D02*
X127278571Y-72369757D01*
X127278571Y-72369757D02*
X127421428Y-72512614D01*
X127421428Y-72512614D02*
X127492857Y-72798328D01*
X127492857Y-72798328D02*
X127492857Y-73298328D01*
X127492857Y-73298328D02*
X127421428Y-73584042D01*
X127421428Y-73584042D02*
X127278571Y-73726900D01*
X127278571Y-73726900D02*
X127135714Y-73798328D01*
X127135714Y-73798328D02*
X126850000Y-73798328D01*
X126850000Y-73798328D02*
X126707143Y-73726900D01*
X126707143Y-73726900D02*
X126564285Y-73584042D01*
X126564285Y-73584042D02*
X126492857Y-73298328D01*
X126492857Y-73298328D02*
X126492857Y-72798328D01*
X126492857Y-72798328D02*
X126564285Y-72512614D01*
X126564285Y-72512614D02*
X126707143Y-72369757D01*
X126707143Y-72369757D02*
X126850000Y-72298328D01*
D10*
X124624819Y-97793333D02*
X125339104Y-97793333D01*
X125339104Y-97793333D02*
X125481961Y-97840952D01*
X125481961Y-97840952D02*
X125577200Y-97936190D01*
X125577200Y-97936190D02*
X125624819Y-98079047D01*
X125624819Y-98079047D02*
X125624819Y-98174285D01*
X125624819Y-96793333D02*
X125624819Y-97364761D01*
X125624819Y-97079047D02*
X124624819Y-97079047D01*
X124624819Y-97079047D02*
X124767676Y-97174285D01*
X124767676Y-97174285D02*
X124862914Y-97269523D01*
X124862914Y-97269523D02*
X124910533Y-97364761D01*
X147484819Y-97793333D02*
X148199104Y-97793333D01*
X148199104Y-97793333D02*
X148341961Y-97840952D01*
X148341961Y-97840952D02*
X148437200Y-97936190D01*
X148437200Y-97936190D02*
X148484819Y-98079047D01*
X148484819Y-98079047D02*
X148484819Y-98174285D01*
X147484819Y-97412380D02*
X147484819Y-96793333D01*
X147484819Y-96793333D02*
X147865771Y-97126666D01*
X147865771Y-97126666D02*
X147865771Y-96983809D01*
X147865771Y-96983809D02*
X147913390Y-96888571D01*
X147913390Y-96888571D02*
X147961009Y-96840952D01*
X147961009Y-96840952D02*
X148056247Y-96793333D01*
X148056247Y-96793333D02*
X148294342Y-96793333D01*
X148294342Y-96793333D02*
X148389580Y-96840952D01*
X148389580Y-96840952D02*
X148437200Y-96888571D01*
X148437200Y-96888571D02*
X148484819Y-96983809D01*
X148484819Y-96983809D02*
X148484819Y-97269523D01*
X148484819Y-97269523D02*
X148437200Y-97364761D01*
X148437200Y-97364761D02*
X148389580Y-97412380D01*
X115480819Y-49533333D02*
X116195104Y-49533333D01*
X116195104Y-49533333D02*
X116337961Y-49580952D01*
X116337961Y-49580952D02*
X116433200Y-49676190D01*
X116433200Y-49676190D02*
X116480819Y-49819047D01*
X116480819Y-49819047D02*
X116480819Y-49914285D01*
X115576057Y-49104761D02*
X115528438Y-49057142D01*
X115528438Y-49057142D02*
X115480819Y-48961904D01*
X115480819Y-48961904D02*
X115480819Y-48723809D01*
X115480819Y-48723809D02*
X115528438Y-48628571D01*
X115528438Y-48628571D02*
X115576057Y-48580952D01*
X115576057Y-48580952D02*
X115671295Y-48533333D01*
X115671295Y-48533333D02*
X115766533Y-48533333D01*
X115766533Y-48533333D02*
X115909390Y-48580952D01*
X115909390Y-48580952D02*
X116480819Y-49152380D01*
X116480819Y-49152380D02*
X116480819Y-48533333D01*
X142404819Y-49533333D02*
X143119104Y-49533333D01*
X143119104Y-49533333D02*
X143261961Y-49580952D01*
X143261961Y-49580952D02*
X143357200Y-49676190D01*
X143357200Y-49676190D02*
X143404819Y-49819047D01*
X143404819Y-49819047D02*
X143404819Y-49914285D01*
X142738152Y-48628571D02*
X143404819Y-48628571D01*
X142357200Y-48866666D02*
X143071485Y-49104761D01*
X143071485Y-49104761D02*
X143071485Y-48485714D01*
X113906667Y-45454819D02*
X113906667Y-44454819D01*
X113906667Y-44454819D02*
X114240000Y-45169104D01*
X114240000Y-45169104D02*
X114573333Y-44454819D01*
X114573333Y-44454819D02*
X114573333Y-45454819D01*
X115049524Y-45454819D02*
X115049524Y-44454819D01*
X115049524Y-44931009D02*
X115620952Y-44931009D01*
X115620952Y-45454819D02*
X115620952Y-44454819D01*
X116620952Y-45454819D02*
X116049524Y-45454819D01*
X116335238Y-45454819D02*
X116335238Y-44454819D01*
X116335238Y-44454819D02*
X116240000Y-44597676D01*
X116240000Y-44597676D02*
X116144762Y-44692914D01*
X116144762Y-44692914D02*
X116049524Y-44740533D01*
X164536666Y-66694819D02*
X164536666Y-67409104D01*
X164536666Y-67409104D02*
X164489047Y-67551961D01*
X164489047Y-67551961D02*
X164393809Y-67647200D01*
X164393809Y-67647200D02*
X164250952Y-67694819D01*
X164250952Y-67694819D02*
X164155714Y-67694819D01*
X165489047Y-66694819D02*
X165012857Y-66694819D01*
X165012857Y-66694819D02*
X164965238Y-67171009D01*
X164965238Y-67171009D02*
X165012857Y-67123390D01*
X165012857Y-67123390D02*
X165108095Y-67075771D01*
X165108095Y-67075771D02*
X165346190Y-67075771D01*
X165346190Y-67075771D02*
X165441428Y-67123390D01*
X165441428Y-67123390D02*
X165489047Y-67171009D01*
X165489047Y-67171009D02*
X165536666Y-67266247D01*
X165536666Y-67266247D02*
X165536666Y-67504342D01*
X165536666Y-67504342D02*
X165489047Y-67599580D01*
X165489047Y-67599580D02*
X165441428Y-67647200D01*
X165441428Y-67647200D02*
X165346190Y-67694819D01*
X165346190Y-67694819D02*
X165108095Y-67694819D01*
X165108095Y-67694819D02*
X165012857Y-67647200D01*
X165012857Y-67647200D02*
X164965238Y-67599580D01*
X112636667Y-93714819D02*
X112636667Y-92714819D01*
X112636667Y-92714819D02*
X112970000Y-93429104D01*
X112970000Y-93429104D02*
X113303333Y-92714819D01*
X113303333Y-92714819D02*
X113303333Y-93714819D01*
X113779524Y-93714819D02*
X113779524Y-92714819D01*
X113779524Y-93191009D02*
X114350952Y-93191009D01*
X114350952Y-93714819D02*
X114350952Y-92714819D01*
X114779524Y-92810057D02*
X114827143Y-92762438D01*
X114827143Y-92762438D02*
X114922381Y-92714819D01*
X114922381Y-92714819D02*
X115160476Y-92714819D01*
X115160476Y-92714819D02*
X115255714Y-92762438D01*
X115255714Y-92762438D02*
X115303333Y-92810057D01*
X115303333Y-92810057D02*
X115350952Y-92905295D01*
X115350952Y-92905295D02*
X115350952Y-93000533D01*
X115350952Y-93000533D02*
X115303333Y-93143390D01*
X115303333Y-93143390D02*
X114731905Y-93714819D01*
X114731905Y-93714819D02*
X115350952Y-93714819D01*
X164706667Y-60694819D02*
X164706667Y-59694819D01*
X164706667Y-59694819D02*
X165040000Y-60409104D01*
X165040000Y-60409104D02*
X165373333Y-59694819D01*
X165373333Y-59694819D02*
X165373333Y-60694819D01*
X165849524Y-60694819D02*
X165849524Y-59694819D01*
X165849524Y-60171009D02*
X166420952Y-60171009D01*
X166420952Y-60694819D02*
X166420952Y-59694819D01*
X166801905Y-59694819D02*
X167420952Y-59694819D01*
X167420952Y-59694819D02*
X167087619Y-60075771D01*
X167087619Y-60075771D02*
X167230476Y-60075771D01*
X167230476Y-60075771D02*
X167325714Y-60123390D01*
X167325714Y-60123390D02*
X167373333Y-60171009D01*
X167373333Y-60171009D02*
X167420952Y-60266247D01*
X167420952Y-60266247D02*
X167420952Y-60504342D01*
X167420952Y-60504342D02*
X167373333Y-60599580D01*
X167373333Y-60599580D02*
X167325714Y-60647200D01*
X167325714Y-60647200D02*
X167230476Y-60694819D01*
X167230476Y-60694819D02*
X166944762Y-60694819D01*
X166944762Y-60694819D02*
X166849524Y-60647200D01*
X166849524Y-60647200D02*
X166801905Y-60599580D01*
X149214819Y-60983333D02*
X149929104Y-60983333D01*
X149929104Y-60983333D02*
X150071961Y-61030952D01*
X150071961Y-61030952D02*
X150167200Y-61126190D01*
X150167200Y-61126190D02*
X150214819Y-61269047D01*
X150214819Y-61269047D02*
X150214819Y-61364285D01*
X149214819Y-60078571D02*
X149214819Y-60269047D01*
X149214819Y-60269047D02*
X149262438Y-60364285D01*
X149262438Y-60364285D02*
X149310057Y-60411904D01*
X149310057Y-60411904D02*
X149452914Y-60507142D01*
X149452914Y-60507142D02*
X149643390Y-60554761D01*
X149643390Y-60554761D02*
X150024342Y-60554761D01*
X150024342Y-60554761D02*
X150119580Y-60507142D01*
X150119580Y-60507142D02*
X150167200Y-60459523D01*
X150167200Y-60459523D02*
X150214819Y-60364285D01*
X150214819Y-60364285D02*
X150214819Y-60173809D01*
X150214819Y-60173809D02*
X150167200Y-60078571D01*
X150167200Y-60078571D02*
X150119580Y-60030952D01*
X150119580Y-60030952D02*
X150024342Y-59983333D01*
X150024342Y-59983333D02*
X149786247Y-59983333D01*
X149786247Y-59983333D02*
X149691009Y-60030952D01*
X149691009Y-60030952D02*
X149643390Y-60078571D01*
X149643390Y-60078571D02*
X149595771Y-60173809D01*
X149595771Y-60173809D02*
X149595771Y-60364285D01*
X149595771Y-60364285D02*
X149643390Y-60459523D01*
X149643390Y-60459523D02*
X149691009Y-60507142D01*
X149691009Y-60507142D02*
X149786247Y-60554761D01*
X164706667Y-88634819D02*
X164706667Y-87634819D01*
X164706667Y-87634819D02*
X165040000Y-88349104D01*
X165040000Y-88349104D02*
X165373333Y-87634819D01*
X165373333Y-87634819D02*
X165373333Y-88634819D01*
X165849524Y-88634819D02*
X165849524Y-87634819D01*
X165849524Y-88111009D02*
X166420952Y-88111009D01*
X166420952Y-88634819D02*
X166420952Y-87634819D01*
X167325714Y-87968152D02*
X167325714Y-88634819D01*
X167087619Y-87587200D02*
X166849524Y-88301485D01*
X166849524Y-88301485D02*
X167468571Y-88301485D01*
D13*
%TO.C,J7*%
X148320000Y-87340000D02*
X146990000Y-87340000D01*
X148320000Y-86010000D02*
X148320000Y-87340000D01*
X145720000Y-87340000D02*
X99940000Y-87340000D01*
X145720000Y-84680000D02*
X145720000Y-87340000D01*
X145720000Y-84680000D02*
X99940000Y-84680000D01*
X99940000Y-84680000D02*
X99940000Y-87340000D01*
D14*
%TO.C,G\u002A\u002A\u002A*%
G36*
X133000000Y-65030000D02*
G01*
X133000000Y-65840000D01*
X132190000Y-65840000D01*
X131380000Y-65840000D01*
X131380000Y-65030000D01*
X131380000Y-64220000D01*
X132190000Y-64220000D01*
X133000000Y-64220000D01*
X133000000Y-65030000D01*
G37*
G36*
X116820000Y-65030000D02*
G01*
X116820000Y-65840000D01*
X116010000Y-65840000D01*
X115200000Y-65840000D01*
X115200000Y-65030000D01*
X115200000Y-64220000D01*
X116010000Y-64220000D01*
X116820000Y-64220000D01*
X116820000Y-65030000D01*
G37*
G36*
X127600000Y-66650000D02*
G01*
X127600000Y-66920000D01*
X127330000Y-66920000D01*
X127060000Y-66920000D01*
X127060000Y-66650000D01*
X127060000Y-66380000D01*
X127330000Y-66380000D01*
X127600000Y-66380000D01*
X127600000Y-66650000D01*
G37*
G36*
X126524419Y-66635000D02*
G01*
X126526128Y-66759014D01*
X126526576Y-66904282D01*
X126525780Y-67052074D01*
X126523945Y-67175000D01*
X126517891Y-67460000D01*
X126248945Y-67460000D01*
X125980000Y-67460000D01*
X125980000Y-66920000D01*
X125980000Y-66380000D01*
X126249419Y-66380000D01*
X126518838Y-66380000D01*
X126524419Y-66635000D01*
G37*
G36*
X123300000Y-68000000D02*
G01*
X123300000Y-68540000D01*
X122760000Y-68540000D01*
X122220000Y-68540000D01*
X122220000Y-68270580D01*
X122220000Y-68001161D01*
X122485000Y-67995580D01*
X122750000Y-67990000D01*
X122755580Y-67725000D01*
X122761161Y-67460000D01*
X123030580Y-67460000D01*
X123300000Y-67460000D01*
X123300000Y-68000000D01*
G37*
G36*
X117900000Y-69890000D02*
G01*
X117900000Y-70160000D01*
X117360000Y-70160000D01*
X116820000Y-70160000D01*
X116820000Y-69890000D01*
X116820000Y-69620000D01*
X117360000Y-69620000D01*
X117900000Y-69620000D01*
X117900000Y-69890000D01*
G37*
G36*
X121680000Y-74190000D02*
G01*
X121680000Y-74460000D01*
X121410000Y-74460000D01*
X121140000Y-74460000D01*
X121140000Y-74190000D01*
X121140000Y-73920000D01*
X121410000Y-73920000D01*
X121680000Y-73920000D01*
X121680000Y-74190000D01*
G37*
G36*
X130840000Y-79590000D02*
G01*
X130840000Y-79860000D01*
X130570000Y-79860000D01*
X130300000Y-79860000D01*
X130300000Y-79590000D01*
X130300000Y-79320000D01*
X130570000Y-79320000D01*
X130840000Y-79320000D01*
X130840000Y-79590000D01*
G37*
G36*
X128140000Y-75810000D02*
G01*
X128140000Y-76080000D01*
X127870000Y-76080000D01*
X127600000Y-76080000D01*
X127600000Y-75810000D01*
X127600000Y-75540000D01*
X127870000Y-75540000D01*
X128140000Y-75540000D01*
X128140000Y-75810000D01*
G37*
G36*
X127060000Y-76890000D02*
G01*
X127060000Y-77160000D01*
X126790000Y-77160000D01*
X126520000Y-77160000D01*
X126520000Y-76890000D01*
X126520000Y-76620000D01*
X126790000Y-76620000D01*
X127060000Y-76620000D01*
X127060000Y-76890000D01*
G37*
G36*
X128140000Y-78510000D02*
G01*
X128140000Y-78780000D01*
X127870000Y-78780000D01*
X127600000Y-78780000D01*
X127600000Y-78510000D01*
X127600000Y-78240000D01*
X127870000Y-78240000D01*
X128140000Y-78240000D01*
X128140000Y-78510000D01*
G37*
G36*
X116820000Y-81210000D02*
G01*
X116820000Y-82020000D01*
X116010000Y-82020000D01*
X115200000Y-82020000D01*
X115200000Y-81210000D01*
X115200000Y-80400000D01*
X116010000Y-80400000D01*
X116820000Y-80400000D01*
X116820000Y-81210000D01*
G37*
G36*
X129760000Y-63950000D02*
G01*
X129760000Y-64220000D01*
X129490000Y-64220000D01*
X129220000Y-64220000D01*
X129220000Y-63950000D01*
X129220000Y-63680000D01*
X129490000Y-63680000D01*
X129760000Y-63680000D01*
X129760000Y-63950000D01*
G37*
G36*
X134080000Y-65030000D02*
G01*
X134080000Y-66920000D01*
X132190000Y-66920000D01*
X130300000Y-66920000D01*
X130300000Y-66380000D01*
X130840000Y-66380000D01*
X132190000Y-66380000D01*
X133540000Y-66380000D01*
X133540000Y-65030000D01*
X133540000Y-63680000D01*
X132190000Y-63680000D01*
X130840000Y-63680000D01*
X130840000Y-65030000D01*
X130840000Y-66380000D01*
X130300000Y-66380000D01*
X130300000Y-65030000D01*
X130300000Y-63140000D01*
X132190000Y-63140000D01*
X134080000Y-63140000D01*
X134080000Y-65030000D01*
G37*
G36*
X117900000Y-65030000D02*
G01*
X117900000Y-66920000D01*
X116010000Y-66920000D01*
X114120000Y-66920000D01*
X114120000Y-66380000D01*
X114660000Y-66380000D01*
X116010000Y-66380000D01*
X117360000Y-66380000D01*
X117360000Y-65030000D01*
X117360000Y-63680000D01*
X116010000Y-63680000D01*
X114660000Y-63680000D01*
X114660000Y-65030000D01*
X114660000Y-66380000D01*
X114120000Y-66380000D01*
X114120000Y-65030000D01*
X114120000Y-63140000D01*
X116010000Y-63140000D01*
X117900000Y-63140000D01*
X117900000Y-65030000D01*
G37*
G36*
X134080000Y-80670000D02*
G01*
X134080000Y-80940000D01*
X133810000Y-80940000D01*
X133540000Y-80940000D01*
X133540000Y-80670000D01*
X133540000Y-80400000D01*
X133810000Y-80400000D01*
X134080000Y-80400000D01*
X134080000Y-80670000D01*
G37*
G36*
X130300000Y-82830000D02*
G01*
X130300000Y-83100000D01*
X130030000Y-83100000D01*
X129760000Y-83100000D01*
X129760000Y-82830000D01*
X129760000Y-82560000D01*
X130030000Y-82560000D01*
X130300000Y-82560000D01*
X130300000Y-82830000D01*
G37*
G36*
X126520000Y-81750000D02*
G01*
X126520000Y-82020000D01*
X126250000Y-82020000D01*
X125980000Y-82020000D01*
X125980000Y-82290000D01*
X125980000Y-82560000D01*
X125710000Y-82560000D01*
X125440000Y-82560000D01*
X125440000Y-82290000D01*
X125440000Y-82020000D01*
X125710000Y-82020000D01*
X125980000Y-82020000D01*
X125980000Y-81750000D01*
X125980000Y-81480000D01*
X126250000Y-81480000D01*
X126520000Y-81480000D01*
X126520000Y-81750000D01*
G37*
G36*
X128680000Y-82560000D02*
G01*
X128680000Y-83100000D01*
X128410000Y-83100000D01*
X128140000Y-83100000D01*
X128140000Y-82830000D01*
X128140000Y-82560000D01*
X127870000Y-82560000D01*
X127600000Y-82560000D01*
X127600000Y-82830000D01*
X127600000Y-83100000D01*
X127060000Y-83100000D01*
X126520000Y-83100000D01*
X126520000Y-82560000D01*
X126520000Y-82020000D01*
X127600000Y-82020000D01*
X128680000Y-82020000D01*
X128680000Y-82560000D01*
G37*
G36*
X126520000Y-63410000D02*
G01*
X126520000Y-63680000D01*
X126249419Y-63680000D01*
X125980000Y-63680000D01*
X125980000Y-63410000D01*
X125980000Y-63140000D01*
X126250000Y-63140000D01*
X126520000Y-63140000D01*
X126520000Y-63410000D01*
G37*
G36*
X129220000Y-65570000D02*
G01*
X129220000Y-65840000D01*
X128949673Y-65840000D01*
X128680000Y-65840000D01*
X128680000Y-65570580D01*
X128680000Y-65300000D01*
X128950000Y-65300000D01*
X129220000Y-65300000D01*
X129220000Y-65570000D01*
G37*
G36*
X128680000Y-65841161D02*
G01*
X128679357Y-65841147D01*
X128679346Y-65840000D01*
X128680000Y-65840000D01*
X128680000Y-65841161D01*
G37*
G36*
X119520000Y-66110000D02*
G01*
X119520000Y-66380000D01*
X119250580Y-66380000D01*
X118980000Y-66380000D01*
X118980000Y-66650580D01*
X118980000Y-66920000D01*
X118710000Y-66920000D01*
X118440000Y-66920000D01*
X118440000Y-66650000D01*
X118440000Y-66380000D01*
X118710000Y-66380000D01*
X118980000Y-66380000D01*
X118980000Y-66110000D01*
X118980000Y-65840000D01*
X119250000Y-65840000D01*
X119520000Y-65840000D01*
X119520000Y-66110000D01*
G37*
G36*
X120600000Y-67730580D02*
G01*
X120600000Y-68000000D01*
X120330000Y-68000000D01*
X120060000Y-68000000D01*
X120060000Y-67730000D01*
X120060000Y-67460000D01*
X120330000Y-67460000D01*
X120600000Y-67460000D01*
X120600000Y-67730580D01*
G37*
G36*
X132460000Y-68270000D02*
G01*
X132460000Y-68540000D01*
X132190000Y-68540000D01*
X131920000Y-68540000D01*
X131920000Y-68270000D01*
X131920000Y-68000000D01*
X132190000Y-68000000D01*
X132460000Y-68000000D01*
X132460000Y-68270000D01*
G37*
G36*
X119520000Y-68270000D02*
G01*
X119520000Y-68540000D01*
X119250580Y-68540000D01*
X118980000Y-68540000D01*
X118980000Y-68270000D01*
X118980000Y-68000000D01*
X119250000Y-68000000D01*
X119520000Y-68000000D01*
X119520000Y-68270000D01*
G37*
G36*
X118440000Y-68540326D02*
G01*
X118440000Y-69080000D01*
X117900000Y-69080000D01*
X117360000Y-69080000D01*
X117360000Y-68810580D01*
X117360000Y-68541161D01*
X117625000Y-68535580D01*
X117890000Y-68530000D01*
X117895580Y-68265000D01*
X117901161Y-68000000D01*
X118170000Y-68000000D01*
X118440000Y-68000000D01*
X118440000Y-68540326D01*
G37*
G36*
X116280000Y-67730000D02*
G01*
X116280000Y-68000000D01*
X116820000Y-68000000D01*
X117360000Y-68000000D01*
X117360000Y-67730000D01*
X117360000Y-67460000D01*
X117630000Y-67460000D01*
X117900000Y-67460000D01*
X117900000Y-67730000D01*
X117900000Y-68000000D01*
X117630580Y-68000000D01*
X117360000Y-68000000D01*
X117360000Y-68270000D01*
X117360000Y-68540000D01*
X116820000Y-68540000D01*
X116280000Y-68540000D01*
X116280000Y-68810000D01*
X116280000Y-69080000D01*
X116010000Y-69080000D01*
X115740000Y-69080000D01*
X115740000Y-68810000D01*
X115740000Y-68540000D01*
X115470000Y-68540000D01*
X115200000Y-68540000D01*
X115200000Y-68810000D01*
X115200000Y-69080000D01*
X114930000Y-69080000D01*
X114660000Y-69080000D01*
X114660000Y-68540000D01*
X114660000Y-68000000D01*
X114930000Y-68000000D01*
X115200000Y-68000000D01*
X115200000Y-67730000D01*
X115200000Y-67460000D01*
X115740000Y-67460000D01*
X116280000Y-67460000D01*
X116280000Y-67730000D01*
G37*
G36*
X121680000Y-63410000D02*
G01*
X121680000Y-63680000D01*
X121950000Y-63680000D01*
X122220000Y-63680000D01*
X122220000Y-63410000D01*
X122220000Y-63140000D01*
X122490000Y-63140000D01*
X122760000Y-63140000D01*
X122760000Y-63410000D01*
X122760000Y-63680000D01*
X122490000Y-63680000D01*
X122220000Y-63680000D01*
X122220000Y-63950326D01*
X122220000Y-64220000D01*
X121950580Y-64220000D01*
X121680000Y-64220000D01*
X121680000Y-64490580D01*
X121680000Y-64761161D01*
X121945000Y-64755580D01*
X122210000Y-64750000D01*
X122215580Y-64485000D01*
X122221147Y-64220641D01*
X122755000Y-64215326D01*
X123290000Y-64210000D01*
X123295326Y-63675000D01*
X123300653Y-63140000D01*
X123570326Y-63140000D01*
X123840000Y-63140000D01*
X123840000Y-63410000D01*
X123840000Y-63680000D01*
X124370000Y-63680000D01*
X124900000Y-63680000D01*
X124900000Y-63410000D01*
X124900000Y-63140000D01*
X125170000Y-63140000D01*
X125440000Y-63140000D01*
X125440000Y-63410000D01*
X125440000Y-63680000D01*
X125170357Y-63680000D01*
X124900714Y-63680000D01*
X124900714Y-64207023D01*
X124901187Y-64348347D01*
X124902522Y-64476336D01*
X124904587Y-64585599D01*
X124907255Y-64670749D01*
X124910394Y-64726398D01*
X124913690Y-64747023D01*
X124937531Y-64751905D01*
X124993383Y-64755948D01*
X125073261Y-64758768D01*
X125169179Y-64759980D01*
X125183333Y-64760000D01*
X125440000Y-64760000D01*
X125440000Y-64220000D01*
X125440000Y-63680000D01*
X125710000Y-63680000D01*
X125978838Y-63680000D01*
X125984419Y-63945000D01*
X125990000Y-64210000D01*
X126525000Y-64215326D01*
X127060000Y-64220653D01*
X127060000Y-64490326D01*
X127060000Y-64760000D01*
X127330000Y-64760000D01*
X127600000Y-64760000D01*
X127600000Y-64220000D01*
X127600000Y-63680000D01*
X128140000Y-63680000D01*
X128680000Y-63680000D01*
X128680000Y-64220000D01*
X128680000Y-64760000D01*
X128409673Y-64760000D01*
X128139346Y-64760000D01*
X128144673Y-65295000D01*
X128150000Y-65830000D01*
X128415000Y-65835580D01*
X128679357Y-65841147D01*
X128684673Y-66375000D01*
X128690000Y-66910000D01*
X128955000Y-66915580D01*
X129220000Y-66921161D01*
X129220000Y-66650580D01*
X129220000Y-66380000D01*
X129489673Y-66380000D01*
X129759346Y-66380000D01*
X129764673Y-66915000D01*
X129770000Y-67450000D01*
X130305000Y-67455326D01*
X130839999Y-67460653D01*
X130840000Y-67730326D01*
X130840000Y-68000000D01*
X131110000Y-68000000D01*
X131380000Y-68000000D01*
X131380000Y-67730000D01*
X131380000Y-67460000D01*
X131650000Y-67460000D01*
X131920000Y-67460000D01*
X131920000Y-67730000D01*
X131920000Y-68000000D01*
X131650000Y-68000000D01*
X131380000Y-68000000D01*
X131380000Y-68810000D01*
X131380000Y-69620000D01*
X131110000Y-69620000D01*
X130840000Y-69620000D01*
X130840000Y-68810000D01*
X130840000Y-68000000D01*
X130299419Y-68000000D01*
X129758838Y-68000000D01*
X129764419Y-68265000D01*
X129770000Y-68530000D01*
X130035000Y-68535580D01*
X130300000Y-68541161D01*
X130300000Y-68810580D01*
X130300000Y-69080000D01*
X129760000Y-69080000D01*
X129220000Y-69080000D01*
X129220000Y-68540000D01*
X129220000Y-68000000D01*
X128680000Y-68000000D01*
X128140000Y-68000000D01*
X128140000Y-67190000D01*
X128140000Y-66380000D01*
X127870000Y-66380000D01*
X127600000Y-66380000D01*
X127600000Y-65840000D01*
X127600000Y-65300000D01*
X127330000Y-65300000D01*
X127060000Y-65300000D01*
X127060000Y-65030000D01*
X127060000Y-64760000D01*
X126790000Y-64760000D01*
X126520000Y-64760000D01*
X126520000Y-65030000D01*
X126520000Y-65300000D01*
X125710000Y-65300000D01*
X124900000Y-65300000D01*
X124900000Y-65030000D01*
X124900000Y-64760000D01*
X124630000Y-64760000D01*
X124360000Y-64760000D01*
X124360000Y-64490000D01*
X124360000Y-64220000D01*
X123830000Y-64220000D01*
X123300000Y-64220000D01*
X123300000Y-64760000D01*
X123300000Y-65300000D01*
X123030000Y-65300000D01*
X122760000Y-65300000D01*
X122760000Y-65570000D01*
X122760000Y-65840000D01*
X122220000Y-65840000D01*
X121680000Y-65840000D01*
X121680000Y-66110000D01*
X121680000Y-66380000D01*
X121410000Y-66380000D01*
X121140000Y-66380000D01*
X121140000Y-66650000D01*
X121140000Y-66920000D01*
X120870000Y-66920000D01*
X120600000Y-66920000D01*
X120600000Y-66650000D01*
X120600000Y-66380000D01*
X120330000Y-66380000D01*
X120060000Y-66380000D01*
X120060000Y-66920000D01*
X120060000Y-67460000D01*
X119520000Y-67460000D01*
X118980000Y-67460000D01*
X118980000Y-67190000D01*
X118980000Y-66921161D01*
X119245000Y-66915580D01*
X119510000Y-66910000D01*
X119515580Y-66645000D01*
X119521161Y-66380000D01*
X119790000Y-66380000D01*
X120060000Y-66380000D01*
X120060000Y-66110000D01*
X120060000Y-65840000D01*
X120330000Y-65840000D01*
X120600000Y-65840000D01*
X120600000Y-66110000D01*
X120600000Y-66380000D01*
X120870000Y-66380000D01*
X121140000Y-66380000D01*
X121140000Y-65570000D01*
X121140000Y-64760000D01*
X120870000Y-64760000D01*
X120600000Y-64760000D01*
X120600000Y-64490000D01*
X120600000Y-64220000D01*
X121140000Y-64220000D01*
X121680000Y-64220000D01*
X121680000Y-63950000D01*
X121680000Y-63680000D01*
X120870000Y-63680000D01*
X120060000Y-63680000D01*
X120060000Y-64220000D01*
X120060000Y-64760000D01*
X119790000Y-64760000D01*
X119520000Y-64760000D01*
X119520000Y-64490000D01*
X119520000Y-64220000D01*
X119250000Y-64220000D01*
X118980000Y-64220000D01*
X118980000Y-63950000D01*
X118980000Y-63680000D01*
X119520000Y-63680000D01*
X120060000Y-63680000D01*
X120060000Y-63410000D01*
X120060000Y-63140000D01*
X120870000Y-63140000D01*
X121680000Y-63140000D01*
X121680000Y-63410000D01*
G37*
G36*
X120060000Y-68809964D02*
G01*
X120060000Y-69079928D01*
X120595000Y-69074964D01*
X121130000Y-69070000D01*
X121135580Y-68805000D01*
X121141161Y-68540000D01*
X121410000Y-68540000D01*
X121680000Y-68540000D01*
X121680000Y-69080000D01*
X121680000Y-69620000D01*
X121140000Y-69620000D01*
X120600000Y-69620000D01*
X120600000Y-69890000D01*
X120600000Y-70160000D01*
X120870000Y-70160000D01*
X121140000Y-70160000D01*
X121140000Y-70430000D01*
X121140000Y-70700000D01*
X120870000Y-70700000D01*
X120600000Y-70700000D01*
X120600000Y-70970000D01*
X120600000Y-71240000D01*
X120060000Y-71240000D01*
X119520000Y-71240000D01*
X119520000Y-70970580D01*
X119520000Y-70701161D01*
X119785000Y-70695580D01*
X120050000Y-70690000D01*
X120055580Y-70425000D01*
X120061161Y-70160000D01*
X119790580Y-70160000D01*
X119520000Y-70160000D01*
X119520000Y-70430000D01*
X119520000Y-70700000D01*
X118980000Y-70700000D01*
X118440000Y-70700000D01*
X118440000Y-70161161D01*
X118980000Y-70161161D01*
X119245000Y-70155580D01*
X119510000Y-70150000D01*
X119515580Y-69885000D01*
X119521161Y-69620000D01*
X119250580Y-69620000D01*
X118980000Y-69620000D01*
X118980000Y-69890580D01*
X118980000Y-70161161D01*
X118440000Y-70161161D01*
X118440000Y-69890580D01*
X118440000Y-69890000D01*
X118440000Y-69080653D01*
X118975000Y-69075326D01*
X119510000Y-69070000D01*
X119515580Y-68805000D01*
X119521161Y-68540000D01*
X119790000Y-68540000D01*
X120060000Y-68540000D01*
X120060000Y-68809964D01*
G37*
G36*
X134080000Y-71510000D02*
G01*
X134080000Y-71780000D01*
X133810000Y-71780000D01*
X133540000Y-71780000D01*
X133540000Y-71510000D01*
X133540000Y-71240000D01*
X133810000Y-71240000D01*
X134080000Y-71240000D01*
X134080000Y-71510000D01*
G37*
G36*
X115740000Y-69350000D02*
G01*
X115740000Y-69620000D01*
X116010000Y-69620000D01*
X116280000Y-69620000D01*
X116280000Y-69890000D01*
X116280000Y-70160000D01*
X116550000Y-70160000D01*
X116820000Y-70160000D01*
X116820000Y-70700580D01*
X116820000Y-71240000D01*
X115740580Y-71240000D01*
X114660000Y-71240000D01*
X114660000Y-71510000D01*
X114660000Y-71780000D01*
X114390000Y-71780000D01*
X114120000Y-71780000D01*
X114120000Y-71510000D01*
X114120000Y-71240000D01*
X114390000Y-71240000D01*
X114660000Y-71240000D01*
X114660000Y-70970326D01*
X114660000Y-70700653D01*
X115195000Y-70695326D01*
X115730000Y-70690000D01*
X115735580Y-70425000D01*
X115741161Y-70160000D01*
X115200580Y-70160000D01*
X114660000Y-70160000D01*
X114660000Y-69890000D01*
X114660000Y-69620000D01*
X114930000Y-69620000D01*
X115200000Y-69620000D01*
X115200000Y-69350000D01*
X115200000Y-69080000D01*
X115470000Y-69080000D01*
X115740000Y-69080000D01*
X115740000Y-69350000D01*
G37*
G36*
X131010522Y-72313950D02*
G01*
X131124423Y-72315576D01*
X131378847Y-72321152D01*
X131384423Y-72585576D01*
X131390000Y-72850000D01*
X131660000Y-72854212D01*
X131793942Y-72856006D01*
X131945840Y-72857577D01*
X132094812Y-72858730D01*
X132195000Y-72859212D01*
X132460000Y-72860000D01*
X132460000Y-73660000D01*
X132460000Y-74460000D01*
X132195000Y-74460787D01*
X132062663Y-74461481D01*
X131911215Y-74462745D01*
X131761533Y-74464384D01*
X131660000Y-74465787D01*
X131390000Y-74470000D01*
X131384419Y-74735000D01*
X131378861Y-74998861D01*
X131115000Y-75004419D01*
X130850000Y-75010000D01*
X130844419Y-75275000D01*
X130838838Y-75540000D01*
X130574419Y-75540787D01*
X130442365Y-75541481D01*
X130291156Y-75542744D01*
X130141632Y-75544382D01*
X130040000Y-75545787D01*
X129770000Y-75550000D01*
X129764423Y-75814423D01*
X129758847Y-76078847D01*
X129504423Y-76084423D01*
X129380674Y-76086130D01*
X129235638Y-76086577D01*
X129088004Y-76085782D01*
X128965000Y-76083945D01*
X128680000Y-76077891D01*
X128680000Y-75808945D01*
X128680000Y-75540000D01*
X129220000Y-75540000D01*
X129760000Y-75540000D01*
X129760000Y-74999038D01*
X129760000Y-74458077D01*
X129495000Y-74460059D01*
X129363911Y-74460774D01*
X129213176Y-74461182D01*
X129063148Y-74461248D01*
X128955000Y-74461020D01*
X128680000Y-74460000D01*
X128680000Y-74190000D01*
X128680000Y-73920000D01*
X129758838Y-73920000D01*
X130029419Y-73920000D01*
X130300000Y-73920000D01*
X130300000Y-74460000D01*
X130300000Y-75000000D01*
X130570000Y-75000000D01*
X130840000Y-75000000D01*
X130840000Y-74730000D01*
X130840000Y-74460000D01*
X131110000Y-74460000D01*
X131380000Y-74460000D01*
X131380000Y-73660000D01*
X131380000Y-72860000D01*
X131110000Y-72860000D01*
X130840000Y-72860000D01*
X130840000Y-73120000D01*
X130840000Y-73380000D01*
X130575000Y-73380787D01*
X130442663Y-73381481D01*
X130291215Y-73382745D01*
X130141533Y-73384384D01*
X130040000Y-73385787D01*
X129770000Y-73390000D01*
X129764419Y-73655000D01*
X129758838Y-73920000D01*
X128680000Y-73920000D01*
X128410000Y-73920000D01*
X128140000Y-73920000D01*
X128140000Y-73649419D01*
X128140000Y-73380000D01*
X128409038Y-73380000D01*
X128680000Y-73380000D01*
X128680000Y-72850000D01*
X128680000Y-72320000D01*
X128949419Y-72320000D01*
X129218838Y-72320000D01*
X129224419Y-72585000D01*
X129230000Y-72850000D01*
X129765000Y-72854964D01*
X130300000Y-72859928D01*
X130300000Y-72591018D01*
X130300000Y-72322108D01*
X130585000Y-72316054D01*
X130718322Y-72314119D01*
X130866394Y-72313412D01*
X131010522Y-72313950D01*
G37*
G36*
X123840000Y-65570000D02*
G01*
X123840000Y-65840000D01*
X124639419Y-65840000D01*
X125438838Y-65840000D01*
X125444419Y-66095000D01*
X125446128Y-66219014D01*
X125446576Y-66364282D01*
X125445780Y-66512074D01*
X125443945Y-66635000D01*
X125437891Y-66920000D01*
X125168945Y-66920000D01*
X124900000Y-66920000D01*
X124900000Y-66650000D01*
X124900000Y-66380000D01*
X124630035Y-66380000D01*
X124360071Y-66380000D01*
X124365035Y-66915000D01*
X124370000Y-67450000D01*
X125174421Y-67455226D01*
X125978842Y-67460452D01*
X125984421Y-67725226D01*
X125990000Y-67990000D01*
X126525000Y-67995326D01*
X127060000Y-68000653D01*
X127060787Y-68265326D01*
X127061481Y-68397504D01*
X127062745Y-68548817D01*
X127064383Y-68698410D01*
X127065787Y-68800000D01*
X127070000Y-69070000D01*
X127335000Y-69075580D01*
X127600000Y-69081161D01*
X127600000Y-68540580D01*
X127600000Y-68000000D01*
X127330000Y-68000000D01*
X127060000Y-68000000D01*
X127060000Y-67730000D01*
X127060000Y-67460000D01*
X127329419Y-67460000D01*
X127598838Y-67460000D01*
X127604419Y-67725000D01*
X127610000Y-67990000D01*
X127875000Y-67995580D01*
X128140000Y-68001161D01*
X128140787Y-68265580D01*
X128141481Y-68397634D01*
X128142744Y-68548843D01*
X128144382Y-68698367D01*
X128145787Y-68800000D01*
X128150000Y-69070000D01*
X128414423Y-69075576D01*
X128678847Y-69081152D01*
X128684423Y-69345576D01*
X128690000Y-69610000D01*
X128960000Y-69614212D01*
X129041767Y-69615183D01*
X129157205Y-69616117D01*
X129299981Y-69616984D01*
X129463766Y-69617754D01*
X129642228Y-69618399D01*
X129829039Y-69618889D01*
X130017866Y-69619194D01*
X130035000Y-69619212D01*
X130840000Y-69620000D01*
X130840000Y-69876666D01*
X130840985Y-69974223D01*
X130843677Y-70056889D01*
X130847681Y-70116665D01*
X130852602Y-70145551D01*
X130853333Y-70146666D01*
X130877314Y-70151683D01*
X130933293Y-70155837D01*
X131013269Y-70158735D01*
X131109242Y-70159980D01*
X131123333Y-70160000D01*
X131380000Y-70160000D01*
X131380000Y-69890000D01*
X131380000Y-69620000D01*
X131650000Y-69620000D01*
X131920000Y-69620000D01*
X131920000Y-69350000D01*
X131920000Y-69080000D01*
X132190000Y-69080000D01*
X132460000Y-69080000D01*
X132460000Y-68810000D01*
X132460000Y-68540000D01*
X132730000Y-68540000D01*
X133000000Y-68540000D01*
X133000000Y-68810000D01*
X133000000Y-69080000D01*
X133270000Y-69080000D01*
X133540000Y-69080000D01*
X133540000Y-69350000D01*
X133540000Y-69620000D01*
X133810000Y-69620000D01*
X134080000Y-69620000D01*
X134080000Y-70160000D01*
X134080000Y-70700000D01*
X133810000Y-70700000D01*
X133540000Y-70700000D01*
X133540000Y-70970000D01*
X133540000Y-71240000D01*
X133000000Y-71240000D01*
X132460000Y-71240000D01*
X132460000Y-70700000D01*
X132460000Y-70160000D01*
X132189773Y-70160000D01*
X131919546Y-70160000D01*
X131924773Y-70965000D01*
X131930000Y-71770000D01*
X132465000Y-71775326D01*
X132999999Y-71780653D01*
X133000000Y-72050326D01*
X133000000Y-72320000D01*
X132460000Y-72320000D01*
X131920000Y-72320000D01*
X131920000Y-72050000D01*
X131920000Y-71780000D01*
X131380000Y-71780000D01*
X130840000Y-71780000D01*
X130840000Y-71510000D01*
X130840000Y-71240000D01*
X130030000Y-71240000D01*
X129220000Y-71240000D01*
X129220000Y-71510000D01*
X129220000Y-71780000D01*
X128680000Y-71780000D01*
X128140000Y-71780000D01*
X128140000Y-71240000D01*
X128140000Y-70956666D01*
X128140000Y-70700000D01*
X128680000Y-70700000D01*
X128680000Y-70956666D01*
X128680985Y-71054223D01*
X128683677Y-71136889D01*
X128687681Y-71196665D01*
X128692602Y-71225551D01*
X128693333Y-71226666D01*
X128717314Y-71231683D01*
X128773293Y-71235837D01*
X128853269Y-71238735D01*
X128949242Y-71239980D01*
X128963333Y-71240000D01*
X129220000Y-71240000D01*
X129220000Y-70970000D01*
X129220000Y-70956666D01*
X129220000Y-70700000D01*
X130840000Y-70700000D01*
X130840000Y-70956666D01*
X130840985Y-71054223D01*
X130843677Y-71136889D01*
X130847681Y-71196665D01*
X130852602Y-71225551D01*
X130853333Y-71226666D01*
X130877314Y-71231683D01*
X130933293Y-71235837D01*
X131013269Y-71238735D01*
X131109242Y-71239980D01*
X131123333Y-71240000D01*
X131380000Y-71240000D01*
X131380000Y-70970000D01*
X131380000Y-70700000D01*
X131110000Y-70700000D01*
X130840000Y-70700000D01*
X129220000Y-70700000D01*
X128950000Y-70700000D01*
X128680000Y-70700000D01*
X128140000Y-70700000D01*
X127599038Y-70700000D01*
X127058077Y-70700000D01*
X127060059Y-70965000D01*
X127060774Y-71096088D01*
X127061182Y-71246823D01*
X127061248Y-71396851D01*
X127061020Y-71505000D01*
X127060000Y-71780000D01*
X126790035Y-71780000D01*
X126520071Y-71780000D01*
X126525035Y-72315000D01*
X126530000Y-72850000D01*
X126795000Y-72855580D01*
X127059999Y-72861161D01*
X127060000Y-73120580D01*
X127060000Y-73380000D01*
X127330000Y-73380000D01*
X127600000Y-73380000D01*
X127600000Y-72850000D01*
X127600000Y-72320000D01*
X127870000Y-72320000D01*
X128140000Y-72320000D01*
X128141020Y-72585000D01*
X128141264Y-72718648D01*
X128141118Y-72870847D01*
X128140621Y-73020152D01*
X128140059Y-73115000D01*
X128138085Y-73378878D01*
X127875000Y-73384419D01*
X127610000Y-73390000D01*
X127605787Y-73660000D01*
X127603993Y-73793942D01*
X127602422Y-73945840D01*
X127601269Y-74094812D01*
X127600787Y-74195000D01*
X127600000Y-74460000D01*
X127330000Y-74460000D01*
X127060000Y-74460000D01*
X127060000Y-74190035D01*
X127060000Y-73920071D01*
X126525000Y-73925035D01*
X125990000Y-73930000D01*
X125984419Y-74195000D01*
X125978838Y-74460000D01*
X125709419Y-74460000D01*
X125440000Y-74460000D01*
X125440000Y-73919419D01*
X125440000Y-73378838D01*
X125175000Y-73384419D01*
X124910000Y-73390000D01*
X124904423Y-73654423D01*
X124898847Y-73918847D01*
X124634423Y-73924423D01*
X124370000Y-73930000D01*
X124364419Y-74195000D01*
X124358838Y-74460000D01*
X124629419Y-74460000D01*
X124900000Y-74460000D01*
X124900000Y-74730000D01*
X124900000Y-75000000D01*
X125440000Y-75000000D01*
X125980000Y-75000000D01*
X125980000Y-75270000D01*
X125980000Y-75540000D01*
X125715000Y-75540603D01*
X125619796Y-75540946D01*
X125493728Y-75541586D01*
X125345930Y-75542467D01*
X125185536Y-75543532D01*
X125021679Y-75544725D01*
X124910000Y-75545603D01*
X124370000Y-75550000D01*
X124364419Y-75815000D01*
X124358838Y-76080000D01*
X124629419Y-76080000D01*
X124900000Y-76080000D01*
X124900000Y-76349419D01*
X124900000Y-76618838D01*
X124645000Y-76624419D01*
X124518583Y-76626152D01*
X124371900Y-76626560D01*
X124224665Y-76625662D01*
X124115573Y-76623924D01*
X123841146Y-76617849D01*
X123835573Y-76353924D01*
X123830000Y-76090000D01*
X123565000Y-76084419D01*
X123300000Y-76078838D01*
X123300000Y-75810000D01*
X123300000Y-75540000D01*
X123830000Y-75540000D01*
X124360000Y-75540000D01*
X124360000Y-75269038D01*
X124360000Y-74998077D01*
X124095000Y-75000059D01*
X123961450Y-75000787D01*
X123809442Y-75001193D01*
X123660380Y-75001238D01*
X123565580Y-75001020D01*
X123301161Y-75000000D01*
X123295580Y-74735000D01*
X123290000Y-74470000D01*
X123025000Y-74464419D01*
X122761137Y-74458861D01*
X122755580Y-74195000D01*
X122750000Y-73930000D01*
X122485000Y-73924419D01*
X122220000Y-73918838D01*
X122219393Y-73659419D01*
X122219151Y-73532178D01*
X122218962Y-73390000D01*
X122760000Y-73390000D01*
X122760000Y-73920000D01*
X123030000Y-73920000D01*
X123300000Y-73920000D01*
X123300000Y-74190000D01*
X123300000Y-74460000D01*
X123570580Y-74460000D01*
X123841161Y-74460000D01*
X123835580Y-74195000D01*
X123830000Y-73930000D01*
X123565000Y-73924419D01*
X123300000Y-73918838D01*
X123300000Y-73649419D01*
X123300000Y-73380000D01*
X123830000Y-73380000D01*
X124360000Y-73380000D01*
X124360000Y-73120000D01*
X124360000Y-72860000D01*
X124100000Y-72860000D01*
X123840000Y-72860000D01*
X123840000Y-72590000D01*
X123840000Y-72320000D01*
X124100000Y-72320000D01*
X124360000Y-72320000D01*
X124360000Y-72050000D01*
X124360000Y-71780000D01*
X124630000Y-71780000D01*
X124900000Y-71780000D01*
X124900787Y-72045000D01*
X124901481Y-72177336D01*
X124902745Y-72328784D01*
X124904384Y-72478466D01*
X124905787Y-72580000D01*
X124910000Y-72850000D01*
X125175000Y-72855580D01*
X125440000Y-72861161D01*
X125440000Y-72590580D01*
X125440000Y-72320000D01*
X125710000Y-72320000D01*
X125980000Y-72320000D01*
X125980000Y-72050000D01*
X125980000Y-71780000D01*
X126250000Y-71780000D01*
X126520000Y-71780000D01*
X126520000Y-71510000D01*
X126520000Y-71240000D01*
X125980000Y-71240000D01*
X125440000Y-71240000D01*
X125440000Y-70970000D01*
X125440000Y-70700000D01*
X125170000Y-70700000D01*
X124900000Y-70700000D01*
X124900000Y-70970000D01*
X124900000Y-71240000D01*
X124100000Y-71240000D01*
X123300000Y-71240000D01*
X123300000Y-72050000D01*
X123300000Y-72860000D01*
X123030000Y-72860000D01*
X122760000Y-72860000D01*
X122760000Y-73390000D01*
X122218962Y-73390000D01*
X122218955Y-73384419D01*
X122218827Y-73235624D01*
X122218787Y-73120000D01*
X122218838Y-72986256D01*
X122218954Y-72860000D01*
X122218976Y-72836519D01*
X122219180Y-72690271D01*
X122219393Y-72580580D01*
X122220000Y-72321161D01*
X122485000Y-72315580D01*
X122750000Y-72310000D01*
X122754212Y-72040000D01*
X122756006Y-71906153D01*
X122757577Y-71754443D01*
X122758729Y-71605709D01*
X122759212Y-71505580D01*
X122760000Y-71241161D01*
X123025000Y-71235580D01*
X123290000Y-71230000D01*
X123294212Y-70960000D01*
X123296006Y-70826153D01*
X123297577Y-70674443D01*
X123298729Y-70525709D01*
X123299212Y-70425580D01*
X123300000Y-70161161D01*
X123565000Y-70155580D01*
X123830000Y-70150000D01*
X123835580Y-69885000D01*
X123835756Y-69876666D01*
X123841161Y-69620000D01*
X124360000Y-69620000D01*
X124360000Y-69876666D01*
X124360985Y-69974223D01*
X124363677Y-70056889D01*
X124367681Y-70116665D01*
X124372602Y-70145551D01*
X124373333Y-70146666D01*
X124397314Y-70151683D01*
X124453293Y-70155837D01*
X124533269Y-70158735D01*
X124629242Y-70159980D01*
X124643333Y-70160000D01*
X124900000Y-70160000D01*
X124900000Y-69890000D01*
X124900000Y-69620000D01*
X124630000Y-69620000D01*
X124360000Y-69620000D01*
X123841161Y-69620000D01*
X123570580Y-69620000D01*
X123300000Y-69620000D01*
X123300000Y-69890000D01*
X123300000Y-70160000D01*
X123030000Y-70160000D01*
X122760000Y-70160000D01*
X122760000Y-70700000D01*
X122760000Y-71240000D01*
X122490000Y-71240000D01*
X122220000Y-71240000D01*
X122220000Y-71780000D01*
X122220000Y-72320000D01*
X121950000Y-72320000D01*
X121680000Y-72320000D01*
X121680000Y-72590000D01*
X121680000Y-72860000D01*
X121410000Y-72860000D01*
X121140000Y-72860000D01*
X121140000Y-73120000D01*
X121140000Y-73380000D01*
X120870000Y-73380000D01*
X120600000Y-73380000D01*
X120600000Y-74190000D01*
X120600000Y-75000000D01*
X120330000Y-75000000D01*
X120060000Y-75000000D01*
X120060000Y-75540000D01*
X120060000Y-76080000D01*
X120330000Y-76080000D01*
X120600000Y-76080000D01*
X120600000Y-75810000D01*
X120600000Y-75540000D01*
X121140000Y-75540000D01*
X121680000Y-75540000D01*
X121680000Y-75270000D01*
X121680000Y-75000000D01*
X121950000Y-75000000D01*
X122220000Y-75000000D01*
X122220000Y-74730000D01*
X122220000Y-74460000D01*
X122490580Y-74460000D01*
X122760000Y-74460000D01*
X122760000Y-74999419D01*
X122760000Y-75540000D01*
X122490000Y-75540000D01*
X122220000Y-75540000D01*
X122220000Y-76080000D01*
X122220000Y-76620000D01*
X121950000Y-76620000D01*
X121681161Y-76620000D01*
X121675580Y-76355000D01*
X121670000Y-76090000D01*
X121405000Y-76084419D01*
X121140000Y-76078838D01*
X121140000Y-76349419D01*
X121140000Y-76620000D01*
X121410580Y-76620000D01*
X121680000Y-76620000D01*
X121680000Y-76890000D01*
X121680000Y-77160000D01*
X122220000Y-77160000D01*
X122760000Y-77160000D01*
X122760000Y-77430000D01*
X122760000Y-77700000D01*
X122490000Y-77700000D01*
X122220000Y-77700000D01*
X122220000Y-77970000D01*
X122220000Y-78240000D01*
X121410000Y-78240000D01*
X120600000Y-78240000D01*
X120600000Y-78780000D01*
X120600000Y-79320000D01*
X120330000Y-79320000D01*
X120060653Y-79320000D01*
X120055326Y-78785000D01*
X120050000Y-78250000D01*
X119785576Y-78244423D01*
X119521152Y-78238847D01*
X119515576Y-77974423D01*
X119510000Y-77710000D01*
X119245576Y-77704423D01*
X118981152Y-77698847D01*
X118975576Y-77434423D01*
X118970000Y-77170000D01*
X118705000Y-77164419D01*
X118440000Y-77158838D01*
X118440000Y-77429419D01*
X118440000Y-77700000D01*
X117900000Y-77700000D01*
X117360000Y-77700000D01*
X117360000Y-77430000D01*
X117360000Y-77160000D01*
X117630000Y-77160000D01*
X117900000Y-77160000D01*
X117900000Y-76890000D01*
X117900000Y-76620000D01*
X118710000Y-76620000D01*
X119520000Y-76620000D01*
X119520000Y-76890000D01*
X119520000Y-77160000D01*
X119790580Y-77160000D01*
X120061161Y-77160000D01*
X120600000Y-77160000D01*
X120870000Y-77160000D01*
X121140000Y-77160000D01*
X121140000Y-77430000D01*
X121140000Y-77700000D01*
X121410580Y-77700000D01*
X121681161Y-77700000D01*
X121675580Y-77435000D01*
X121670000Y-77170000D01*
X121405576Y-77164423D01*
X121141152Y-77158847D01*
X121135576Y-76894423D01*
X121130000Y-76630000D01*
X120865000Y-76624419D01*
X120600000Y-76618838D01*
X120600000Y-76889419D01*
X120600000Y-77160000D01*
X120061161Y-77160000D01*
X120055580Y-76895000D01*
X120055462Y-76889419D01*
X120050000Y-76630000D01*
X119785325Y-76624421D01*
X119520651Y-76618843D01*
X119515325Y-76084421D01*
X119510000Y-75550000D01*
X119245576Y-75544423D01*
X118981152Y-75538847D01*
X118975576Y-75274423D01*
X118970000Y-75010000D01*
X118705576Y-75004423D01*
X118441152Y-74998847D01*
X118435576Y-74734423D01*
X118430000Y-74470000D01*
X117895000Y-74465035D01*
X117360000Y-74460071D01*
X117360000Y-74730035D01*
X117360000Y-75000000D01*
X117630000Y-75000000D01*
X117900000Y-75000000D01*
X117900000Y-75270000D01*
X117900000Y-75540000D01*
X118440000Y-75540000D01*
X118980000Y-75540000D01*
X118980000Y-75808945D01*
X118980000Y-76077891D01*
X118695000Y-76083945D01*
X118561677Y-76085880D01*
X118413605Y-76086587D01*
X118269477Y-76086049D01*
X118155576Y-76084423D01*
X117901152Y-76078847D01*
X117895576Y-75814423D01*
X117890000Y-75550000D01*
X117625576Y-75544423D01*
X117361152Y-75538847D01*
X117355576Y-75274423D01*
X117350000Y-75010000D01*
X116815000Y-75005035D01*
X116280000Y-75000071D01*
X116280000Y-75270035D01*
X116280000Y-75540000D01*
X116010580Y-75540000D01*
X115741161Y-75540000D01*
X115735580Y-75275000D01*
X115730000Y-75010000D01*
X115465000Y-75004419D01*
X115200000Y-74998838D01*
X115200000Y-75269419D01*
X115200000Y-75540000D01*
X115470000Y-75540000D01*
X115740000Y-75540000D01*
X115740000Y-75810000D01*
X115740000Y-76080000D01*
X116010000Y-76080000D01*
X116280000Y-76080000D01*
X116280000Y-75810000D01*
X116280000Y-75540000D01*
X116550000Y-75540000D01*
X116820000Y-75540000D01*
X116820000Y-75810000D01*
X116820000Y-76080000D01*
X116550000Y-76080000D01*
X116280000Y-76080000D01*
X116280000Y-76350000D01*
X116280000Y-76620000D01*
X116010000Y-76620000D01*
X115740000Y-76620000D01*
X115740000Y-76350000D01*
X115740000Y-76080000D01*
X115470000Y-76080000D01*
X115200000Y-76080000D01*
X115200000Y-76620000D01*
X115200000Y-77160000D01*
X115470000Y-77160000D01*
X115740000Y-77160000D01*
X115740000Y-77970000D01*
X115740000Y-78780000D01*
X115470000Y-78780000D01*
X115200000Y-78780000D01*
X115200000Y-78240000D01*
X115200000Y-77700000D01*
X114930000Y-77700000D01*
X114660000Y-77700000D01*
X114660000Y-77970000D01*
X114660000Y-78240000D01*
X114390000Y-78240000D01*
X114120000Y-78240000D01*
X114120000Y-77970000D01*
X114120000Y-77700000D01*
X114390000Y-77700000D01*
X114660000Y-77700000D01*
X114660000Y-76890000D01*
X114660000Y-76080000D01*
X114390000Y-76080000D01*
X114120000Y-76080000D01*
X114120000Y-75540000D01*
X114120000Y-75000000D01*
X114390580Y-75000000D01*
X114661161Y-75000000D01*
X114655580Y-74735000D01*
X114650000Y-74470000D01*
X114385000Y-74464419D01*
X114175175Y-74460000D01*
X118440000Y-74460000D01*
X118710000Y-74460000D01*
X118980000Y-74460000D01*
X118980000Y-74730000D01*
X118980000Y-75000000D01*
X119250580Y-75000000D01*
X119521161Y-75000000D01*
X119515580Y-74735000D01*
X119510000Y-74470000D01*
X119245576Y-74464423D01*
X118981152Y-74458847D01*
X118975576Y-74194423D01*
X118970000Y-73930000D01*
X118705000Y-73924419D01*
X118440000Y-73918838D01*
X118440000Y-74189419D01*
X118440000Y-74460000D01*
X114175175Y-74460000D01*
X114120000Y-74458838D01*
X114120000Y-74189419D01*
X114120000Y-73389419D01*
X114120000Y-72320000D01*
X114390000Y-72320000D01*
X114660000Y-72320000D01*
X114660000Y-73120000D01*
X114660000Y-73920000D01*
X115470000Y-73920000D01*
X116280000Y-73920000D01*
X116280000Y-73650000D01*
X116280000Y-73380000D01*
X116550000Y-73380000D01*
X116820000Y-73380000D01*
X116820000Y-73650000D01*
X116820000Y-73920000D01*
X117360580Y-73920000D01*
X117901161Y-73920000D01*
X117895580Y-73655000D01*
X117890000Y-73390000D01*
X117625000Y-73384419D01*
X117360000Y-73378838D01*
X117360000Y-73120000D01*
X117360000Y-72861161D01*
X117625000Y-72855580D01*
X117890000Y-72850000D01*
X117895580Y-72585000D01*
X117901161Y-72320000D01*
X117090580Y-72320000D01*
X116280000Y-72320000D01*
X116280000Y-72590000D01*
X116280000Y-72860000D01*
X116010000Y-72860000D01*
X115740000Y-72860000D01*
X115740000Y-72590580D01*
X115740000Y-72321161D01*
X116005000Y-72315580D01*
X116270000Y-72310000D01*
X116275576Y-72045576D01*
X116281152Y-71781152D01*
X116545576Y-71775576D01*
X116810000Y-71770000D01*
X116815580Y-71505000D01*
X116821137Y-71241137D01*
X117085000Y-71235580D01*
X117350000Y-71230000D01*
X117355580Y-70965000D01*
X117361161Y-70700000D01*
X117630580Y-70700000D01*
X117900000Y-70700000D01*
X117900000Y-70970000D01*
X117900000Y-71240000D01*
X117630000Y-71240000D01*
X117360000Y-71240000D01*
X117360000Y-71510580D01*
X117360000Y-71781161D01*
X117625000Y-71775580D01*
X117890000Y-71770000D01*
X117895580Y-71505000D01*
X117901161Y-71240000D01*
X118170580Y-71240000D01*
X118440000Y-71240000D01*
X118440000Y-71510000D01*
X118440000Y-71780000D01*
X118710000Y-71780000D01*
X118980000Y-71780000D01*
X118980000Y-72050000D01*
X118980000Y-72320000D01*
X119250000Y-72320000D01*
X119520000Y-72320000D01*
X119520000Y-72850000D01*
X119520000Y-73380000D01*
X119790210Y-73380000D01*
X120060420Y-73380000D01*
X120059463Y-72845000D01*
X120059225Y-72684683D01*
X120059070Y-72521313D01*
X120059001Y-72364110D01*
X120059019Y-72222296D01*
X120059128Y-72105091D01*
X120059252Y-72045000D01*
X120060000Y-71780000D01*
X120330000Y-71780000D01*
X120600000Y-71780000D01*
X120600000Y-72049964D01*
X120600000Y-72319928D01*
X121135000Y-72314964D01*
X121670000Y-72310000D01*
X121674212Y-72040000D01*
X121676006Y-71906153D01*
X121677577Y-71754443D01*
X121678729Y-71605709D01*
X121679212Y-71505580D01*
X121680000Y-71241161D01*
X121945000Y-71235580D01*
X122210000Y-71230000D01*
X122215580Y-70965000D01*
X122221161Y-70700000D01*
X121950580Y-70700000D01*
X121680000Y-70700000D01*
X121680000Y-70970000D01*
X121680000Y-71240000D01*
X121410000Y-71240000D01*
X121140000Y-71240000D01*
X121140000Y-70970580D01*
X121140000Y-70701161D01*
X121405000Y-70695580D01*
X121670000Y-70690000D01*
X121675580Y-70425000D01*
X121681161Y-70160000D01*
X121945580Y-70159212D01*
X122077634Y-70158518D01*
X122228843Y-70157255D01*
X122378367Y-70155617D01*
X122480000Y-70154212D01*
X122750000Y-70150000D01*
X122755576Y-69885576D01*
X122761152Y-69621152D01*
X123025576Y-69615576D01*
X123290000Y-69610000D01*
X123294212Y-69340000D01*
X123296006Y-69206057D01*
X123297577Y-69054159D01*
X123298730Y-68905187D01*
X123299212Y-68805000D01*
X123300000Y-68540000D01*
X123829419Y-68540000D01*
X124358838Y-68540000D01*
X124364419Y-68805000D01*
X124370000Y-69070000D01*
X124634423Y-69075576D01*
X124898847Y-69081152D01*
X124904423Y-69345576D01*
X124910000Y-69610000D01*
X125445000Y-69614964D01*
X125980000Y-69619928D01*
X125980000Y-69349964D01*
X125980000Y-69080000D01*
X125440000Y-69080000D01*
X124900000Y-69080000D01*
X124900000Y-68810000D01*
X124900000Y-68540000D01*
X125170000Y-68540000D01*
X125440000Y-68540000D01*
X125978838Y-68540000D01*
X125984419Y-68805000D01*
X125990000Y-69070000D01*
X126254423Y-69075576D01*
X126518847Y-69081152D01*
X126524423Y-69335576D01*
X126526130Y-69459325D01*
X126526577Y-69604361D01*
X126525782Y-69751995D01*
X126523945Y-69875000D01*
X126517891Y-70160000D01*
X126248945Y-70160000D01*
X125980000Y-70160000D01*
X125980000Y-70416666D01*
X125980958Y-70514182D01*
X125983577Y-70596768D01*
X125987473Y-70656438D01*
X125992261Y-70685207D01*
X125992976Y-70686309D01*
X126015677Y-70689777D01*
X126072989Y-70692895D01*
X126159523Y-70695535D01*
X126269891Y-70697566D01*
X126398703Y-70698859D01*
X126532976Y-70699285D01*
X127060000Y-70699285D01*
X127060000Y-70416666D01*
X127060000Y-70160000D01*
X129220000Y-70160000D01*
X129220000Y-70416666D01*
X129220958Y-70514182D01*
X129223577Y-70596768D01*
X129227473Y-70656438D01*
X129232261Y-70685207D01*
X129232976Y-70686309D01*
X129255677Y-70689777D01*
X129312989Y-70692895D01*
X129399523Y-70695535D01*
X129509891Y-70697566D01*
X129638703Y-70698859D01*
X129772976Y-70699285D01*
X130300000Y-70699285D01*
X130300000Y-70429642D01*
X130300000Y-70160000D01*
X129760000Y-70160000D01*
X129220000Y-70160000D01*
X127060000Y-70160000D01*
X127060000Y-69889642D01*
X127060000Y-69080000D01*
X126790000Y-69080000D01*
X126520000Y-69080000D01*
X126520000Y-68810000D01*
X126520000Y-68540000D01*
X126249419Y-68540000D01*
X125978838Y-68540000D01*
X125440000Y-68540000D01*
X125440000Y-68270000D01*
X125440000Y-68000000D01*
X124640000Y-68000000D01*
X123840000Y-68000000D01*
X123839252Y-67725000D01*
X123839082Y-67626339D01*
X123839003Y-67497080D01*
X123839014Y-67346626D01*
X123839113Y-67184379D01*
X123839297Y-67019741D01*
X123839463Y-66915000D01*
X123840420Y-66380000D01*
X123570210Y-66380000D01*
X123300000Y-66380000D01*
X123300000Y-66650000D01*
X123300000Y-66920000D01*
X123030000Y-66920000D01*
X122760000Y-66920000D01*
X122760000Y-67190000D01*
X122760000Y-67460000D01*
X122490000Y-67460000D01*
X122220000Y-67460000D01*
X122220000Y-67730000D01*
X122220000Y-68000000D01*
X121680000Y-68000000D01*
X121140000Y-68000000D01*
X121140000Y-68270000D01*
X121140000Y-68540000D01*
X120870580Y-68540000D01*
X120600000Y-68540000D01*
X120600000Y-68270000D01*
X120600000Y-68001161D01*
X120865000Y-67995580D01*
X121130000Y-67990000D01*
X121134212Y-67720000D01*
X121136006Y-67586153D01*
X121137577Y-67434443D01*
X121138729Y-67285709D01*
X121139212Y-67185580D01*
X121140000Y-66921161D01*
X121405000Y-66915580D01*
X121670000Y-66910000D01*
X121675580Y-66645000D01*
X121681161Y-66380000D01*
X121950580Y-66380000D01*
X122220000Y-66380000D01*
X122220000Y-66650580D01*
X122220000Y-66921161D01*
X122485000Y-66915580D01*
X122750000Y-66910000D01*
X122754212Y-66640000D01*
X122756006Y-66506153D01*
X122757577Y-66354443D01*
X122758729Y-66205709D01*
X122759212Y-66105580D01*
X122760000Y-65841161D01*
X123025000Y-65835580D01*
X123290000Y-65830000D01*
X123295580Y-65565000D01*
X123301161Y-65300000D01*
X123570580Y-65300000D01*
X123840000Y-65300000D01*
X123840000Y-65570000D01*
G37*
G36*
X117900000Y-76350000D02*
G01*
X117900000Y-76620000D01*
X117630000Y-76620000D01*
X117360000Y-76620000D01*
X117360000Y-76890000D01*
X117360000Y-77160000D01*
X117090000Y-77160000D01*
X116820000Y-77160000D01*
X116820000Y-77700000D01*
X116820000Y-78240000D01*
X117630000Y-78240000D01*
X118440000Y-78240000D01*
X118440000Y-77970000D01*
X118440000Y-77700000D01*
X118710000Y-77700000D01*
X118980000Y-77700000D01*
X118980000Y-78240000D01*
X118980000Y-78780000D01*
X119250000Y-78780000D01*
X119520000Y-78780000D01*
X119520000Y-79050000D01*
X119520000Y-79320000D01*
X119790326Y-79320000D01*
X120060000Y-79320000D01*
X120060000Y-79590000D01*
X120060000Y-79860000D01*
X119790000Y-79860000D01*
X119520000Y-79860000D01*
X119520000Y-80130000D01*
X119520000Y-80400000D01*
X119790000Y-80400000D01*
X120060000Y-80400000D01*
X120060000Y-80670000D01*
X120060000Y-80940000D01*
X119790000Y-80940000D01*
X119520000Y-80940000D01*
X119520000Y-81210000D01*
X119520000Y-81480000D01*
X119790000Y-81480000D01*
X120060000Y-81480000D01*
X120060000Y-81750000D01*
X120060000Y-82020000D01*
X119250000Y-82020000D01*
X118440000Y-82020000D01*
X118440000Y-81480000D01*
X118440000Y-80940000D01*
X118710326Y-80940000D01*
X118980653Y-80940000D01*
X118975326Y-80405000D01*
X118970000Y-79870000D01*
X118705325Y-79864421D01*
X118440651Y-79858843D01*
X118435325Y-79324421D01*
X118430000Y-78790000D01*
X117355000Y-78784826D01*
X116279999Y-78779652D01*
X116279999Y-77969826D01*
X116280000Y-77160000D01*
X116550000Y-77160000D01*
X116820000Y-77160000D01*
X116820000Y-76620000D01*
X116820000Y-76080000D01*
X117360000Y-76080000D01*
X117900000Y-76080000D01*
X117900000Y-76350000D01*
G37*
G36*
X134080000Y-73660000D02*
G01*
X134080000Y-75000000D01*
X133540000Y-75000000D01*
X133000000Y-75000000D01*
X133000000Y-75270000D01*
X133000000Y-75540000D01*
X133540000Y-75540000D01*
X134080000Y-75540000D01*
X134080000Y-75810000D01*
X134080000Y-76080000D01*
X133810000Y-76080000D01*
X133540000Y-76080000D01*
X133540000Y-76890000D01*
X133540000Y-77700000D01*
X133000000Y-77700000D01*
X132460000Y-77700000D01*
X132460000Y-77970000D01*
X132460000Y-78240000D01*
X132190000Y-78240000D01*
X131920000Y-78240000D01*
X131920000Y-78510000D01*
X131920000Y-78780000D01*
X132190000Y-78780000D01*
X132460000Y-78780000D01*
X132460000Y-78510000D01*
X132460000Y-78240000D01*
X132730000Y-78240000D01*
X133000000Y-78240000D01*
X133000000Y-78510000D01*
X133000000Y-78780000D01*
X133270000Y-78780000D01*
X133540000Y-78780000D01*
X133540000Y-78240000D01*
X133540000Y-77700000D01*
X133810000Y-77700000D01*
X134080000Y-77700000D01*
X134080000Y-78780000D01*
X134080000Y-79860000D01*
X133540000Y-79860000D01*
X133000000Y-79860000D01*
X133000000Y-79590000D01*
X133000000Y-79320000D01*
X132730000Y-79320000D01*
X132460000Y-79320000D01*
X132460000Y-80130000D01*
X132460000Y-80940000D01*
X132190000Y-80940000D01*
X131920000Y-80940000D01*
X131920000Y-81210000D01*
X131920000Y-81480000D01*
X132190000Y-81480000D01*
X132460000Y-81480000D01*
X132460000Y-81750000D01*
X132460000Y-82020000D01*
X132730000Y-82020000D01*
X133000000Y-82020000D01*
X133000000Y-81750000D01*
X133000000Y-81480000D01*
X133270000Y-81480000D01*
X133540000Y-81480000D01*
X133540000Y-81750000D01*
X133540000Y-82020000D01*
X133270000Y-82020000D01*
X133000000Y-82020000D01*
X133000000Y-82290000D01*
X133000000Y-82560000D01*
X133540000Y-82560000D01*
X134080000Y-82560000D01*
X134080000Y-82830000D01*
X134080000Y-83100000D01*
X133000000Y-83100000D01*
X131920000Y-83100000D01*
X131920000Y-82830000D01*
X131920000Y-82560000D01*
X131650000Y-82560000D01*
X131380000Y-82560000D01*
X131380000Y-81750000D01*
X131380000Y-80940000D01*
X131110000Y-80940000D01*
X130840000Y-80940000D01*
X130840000Y-81480000D01*
X130840000Y-82020000D01*
X130570000Y-82020000D01*
X130300000Y-82020000D01*
X130300000Y-81480000D01*
X130300000Y-80940000D01*
X130030000Y-80940000D01*
X129760000Y-80940000D01*
X129760000Y-81210000D01*
X129760000Y-81480000D01*
X129490000Y-81480000D01*
X129220000Y-81480000D01*
X129220000Y-80940000D01*
X129220000Y-80400000D01*
X129759546Y-80400000D01*
X130569773Y-80400000D01*
X131380000Y-80400000D01*
X131380000Y-79589773D01*
X131380000Y-78779546D01*
X130575000Y-78784773D01*
X129770000Y-78790000D01*
X129764773Y-79595000D01*
X129759546Y-80400000D01*
X129220000Y-80400000D01*
X128950000Y-80400000D01*
X128680000Y-80400000D01*
X128680000Y-80670000D01*
X128680000Y-80940000D01*
X128410000Y-80940000D01*
X128140000Y-80940000D01*
X128140000Y-81210000D01*
X128140000Y-81480000D01*
X127870000Y-81480000D01*
X127600000Y-81480000D01*
X127600000Y-80939419D01*
X127600000Y-80400000D01*
X128139419Y-80400000D01*
X128680000Y-80400000D01*
X128680000Y-80130000D01*
X128680000Y-79860000D01*
X128950000Y-79860000D01*
X129220000Y-79860000D01*
X129220000Y-79590000D01*
X129220000Y-79320000D01*
X128950000Y-79320000D01*
X128680000Y-79320000D01*
X128680000Y-79589673D01*
X128680000Y-79859346D01*
X128145000Y-79864673D01*
X127610000Y-79870000D01*
X127604419Y-80135000D01*
X127598861Y-80398861D01*
X127335000Y-80404419D01*
X127070000Y-80410000D01*
X127064419Y-80675000D01*
X127058838Y-80940000D01*
X126519419Y-80940000D01*
X125980000Y-80940000D01*
X125980000Y-80399419D01*
X125980000Y-79860000D01*
X126518838Y-79860000D01*
X126789419Y-79860000D01*
X127060000Y-79860000D01*
X127060000Y-79589419D01*
X127060000Y-79318838D01*
X126795000Y-79324419D01*
X126530000Y-79330000D01*
X126524419Y-79595000D01*
X126518838Y-79860000D01*
X125980000Y-79860000D01*
X125980000Y-79858838D01*
X125715000Y-79864419D01*
X125450000Y-79870000D01*
X125445787Y-80140000D01*
X125443993Y-80273942D01*
X125442422Y-80425840D01*
X125441269Y-80574812D01*
X125440787Y-80675000D01*
X125440000Y-80940000D01*
X124640000Y-80940000D01*
X123840000Y-80940000D01*
X123840000Y-81480000D01*
X123840000Y-82020000D01*
X124100000Y-82020000D01*
X124360000Y-82020000D01*
X124360000Y-81750000D01*
X124360000Y-81480000D01*
X124628945Y-81480000D01*
X124897891Y-81480000D01*
X124903945Y-81765000D01*
X124905880Y-81898410D01*
X124906586Y-82046652D01*
X124906046Y-82191000D01*
X124904419Y-82305000D01*
X124898838Y-82560000D01*
X124099419Y-82560000D01*
X123300000Y-82560000D01*
X123300000Y-82830000D01*
X123300000Y-83100000D01*
X122760226Y-83100000D01*
X122220453Y-83100000D01*
X122215226Y-82295000D01*
X122210000Y-81490000D01*
X121675000Y-81484673D01*
X121140000Y-81479346D01*
X121140000Y-81210000D01*
X121140000Y-80940000D01*
X120870000Y-80940000D01*
X120600000Y-80940000D01*
X120600000Y-80670000D01*
X120600000Y-80400000D01*
X120870000Y-80400000D01*
X121140000Y-80400000D01*
X121140000Y-80670000D01*
X121140000Y-80940000D01*
X121680580Y-80940000D01*
X122221161Y-80940000D01*
X122215580Y-80675000D01*
X122210000Y-80410000D01*
X121945000Y-80404419D01*
X121680000Y-80398838D01*
X121680000Y-80129419D01*
X121680000Y-79860000D01*
X122490000Y-79860000D01*
X123300000Y-79860000D01*
X123300000Y-80130000D01*
X123300000Y-80400000D01*
X123030000Y-80400000D01*
X122760000Y-80400000D01*
X122760000Y-81210000D01*
X122760000Y-82020000D01*
X123030961Y-82020000D01*
X123301922Y-82020000D01*
X123299940Y-81755000D01*
X123299225Y-81623911D01*
X123298817Y-81473176D01*
X123298751Y-81323148D01*
X123298979Y-81215000D01*
X123300000Y-80940000D01*
X123570000Y-80940000D01*
X123840000Y-80940000D01*
X123840000Y-80670000D01*
X123840000Y-80400000D01*
X124370000Y-80400000D01*
X124900000Y-80400000D01*
X124900000Y-80130000D01*
X124900000Y-79860000D01*
X125170000Y-79860000D01*
X125440000Y-79860000D01*
X125440000Y-79589673D01*
X125440000Y-79320000D01*
X125978838Y-79320000D01*
X126249419Y-79320000D01*
X126520000Y-79320000D01*
X126520000Y-79049419D01*
X126520000Y-78778838D01*
X126255000Y-78784419D01*
X125990000Y-78790000D01*
X125984419Y-79055000D01*
X125978838Y-79320000D01*
X125440000Y-79320000D01*
X125440000Y-79319346D01*
X124905000Y-79324673D01*
X124370000Y-79330000D01*
X124364419Y-79595000D01*
X124358838Y-79860000D01*
X124100000Y-79860000D01*
X123841161Y-79860000D01*
X123835580Y-79595000D01*
X123830000Y-79330000D01*
X123565000Y-79324419D01*
X123300000Y-79318838D01*
X123300000Y-79049419D01*
X123300000Y-78780000D01*
X123569964Y-78780000D01*
X123839928Y-78780000D01*
X123834964Y-78245000D01*
X123830000Y-77710000D01*
X123565000Y-77704419D01*
X123300000Y-77698838D01*
X123299212Y-77434419D01*
X123298518Y-77302365D01*
X123297255Y-77151156D01*
X123295617Y-77001632D01*
X123294212Y-76900000D01*
X123290000Y-76630000D01*
X123025000Y-76624419D01*
X122760000Y-76618838D01*
X122760000Y-76349419D01*
X122760000Y-76080000D01*
X123030000Y-76080000D01*
X123300000Y-76080000D01*
X123300000Y-76349419D01*
X123300000Y-76620000D01*
X123570000Y-76620000D01*
X123840000Y-76620000D01*
X123840000Y-77160000D01*
X123840000Y-77700000D01*
X124100000Y-77700000D01*
X124360000Y-77700000D01*
X124360000Y-77430000D01*
X124360000Y-77160000D01*
X124630000Y-77160000D01*
X124900000Y-77160000D01*
X124900000Y-76890000D01*
X124900000Y-76620000D01*
X125170000Y-76620000D01*
X125440000Y-76620000D01*
X125440000Y-76350000D01*
X125440000Y-76080000D01*
X125710000Y-76080000D01*
X125980000Y-76080000D01*
X125980000Y-75810000D01*
X125980000Y-75540000D01*
X126250000Y-75540000D01*
X126520000Y-75540000D01*
X126520000Y-75270000D01*
X126520000Y-75000000D01*
X126790000Y-75000000D01*
X127060000Y-75000000D01*
X127060000Y-75269419D01*
X127060000Y-75538838D01*
X126795000Y-75544419D01*
X126530000Y-75550000D01*
X126524423Y-75814423D01*
X126518847Y-76078847D01*
X126254423Y-76084423D01*
X125990000Y-76090000D01*
X125985050Y-76618282D01*
X125983485Y-76759376D01*
X125981605Y-76886771D01*
X125979527Y-76995167D01*
X125977367Y-77079266D01*
X125975241Y-77133768D01*
X125973333Y-77153333D01*
X125952344Y-77155317D01*
X125896654Y-77157447D01*
X125811564Y-77159606D01*
X125702372Y-77161679D01*
X125574378Y-77163549D01*
X125438282Y-77165050D01*
X124910000Y-77170000D01*
X124905787Y-77440000D01*
X124903993Y-77573846D01*
X124902422Y-77725556D01*
X124901270Y-77874290D01*
X124900787Y-77974419D01*
X124900000Y-78238838D01*
X124635000Y-78244419D01*
X124370000Y-78250000D01*
X124364419Y-78515000D01*
X124358838Y-78780000D01*
X124099419Y-78780000D01*
X123840000Y-78780000D01*
X123840000Y-79050000D01*
X123840000Y-79320000D01*
X124100000Y-79320000D01*
X124360000Y-79320000D01*
X124360000Y-79050000D01*
X124360000Y-78780000D01*
X125170000Y-78780000D01*
X125980000Y-78780000D01*
X125980000Y-78510000D01*
X125980000Y-78240000D01*
X125710000Y-78240000D01*
X125440000Y-78240000D01*
X125440000Y-77970000D01*
X125440000Y-77700000D01*
X125980000Y-77700000D01*
X126520000Y-77700000D01*
X126520000Y-77970000D01*
X126520000Y-78240000D01*
X126790000Y-78240000D01*
X127060000Y-78240000D01*
X127060000Y-77700000D01*
X127060000Y-77160000D01*
X127328945Y-77160000D01*
X127597891Y-77160000D01*
X127603945Y-77445000D01*
X127605880Y-77578322D01*
X127606587Y-77726394D01*
X127606049Y-77870522D01*
X127604423Y-77984423D01*
X127598847Y-78238847D01*
X127334423Y-78244423D01*
X127070000Y-78250000D01*
X127064419Y-78515000D01*
X127058838Y-78780000D01*
X127329419Y-78780000D01*
X127600000Y-78780000D01*
X127600000Y-79050000D01*
X127600000Y-79320000D01*
X128140000Y-79320000D01*
X128680000Y-79320000D01*
X128680000Y-78780000D01*
X128680000Y-78240000D01*
X128410000Y-78240000D01*
X128140000Y-78240000D01*
X128140000Y-77700000D01*
X128678838Y-77700000D01*
X128949419Y-77700000D01*
X129220000Y-77700000D01*
X129220000Y-77970000D01*
X129220000Y-78240000D01*
X129490000Y-78240000D01*
X129760000Y-78240000D01*
X129760000Y-77970000D01*
X129760000Y-77700000D01*
X130030000Y-77700000D01*
X130300000Y-77700000D01*
X130300000Y-77970000D01*
X130300000Y-78240000D01*
X130570000Y-78240000D01*
X130840000Y-78240000D01*
X130840000Y-77970000D01*
X130840000Y-77700000D01*
X131380000Y-77700000D01*
X131920000Y-77700000D01*
X131920000Y-77430000D01*
X131920000Y-77160000D01*
X132460000Y-77160000D01*
X133000000Y-77160000D01*
X133000000Y-76620000D01*
X133000000Y-76080000D01*
X132730000Y-76080000D01*
X132460000Y-76080000D01*
X132460000Y-76349419D01*
X132460000Y-76618838D01*
X132195000Y-76624419D01*
X131930000Y-76630000D01*
X131924420Y-76894881D01*
X131918840Y-77159763D01*
X130304420Y-77164881D01*
X128690000Y-77170000D01*
X128684419Y-77435000D01*
X128678838Y-77700000D01*
X128140000Y-77700000D01*
X128140000Y-77430000D01*
X128140000Y-76620000D01*
X128950000Y-76620000D01*
X129760000Y-76620000D01*
X129760000Y-76350000D01*
X129760000Y-76080000D01*
X130840000Y-76080000D01*
X131920000Y-76080000D01*
X131920000Y-75810000D01*
X131920000Y-75540000D01*
X131650000Y-75540000D01*
X131380000Y-75540000D01*
X131380000Y-75269419D01*
X131380000Y-75000000D01*
X131649419Y-75000000D01*
X131920000Y-75000000D01*
X131920000Y-75270000D01*
X131920000Y-75540000D01*
X132190000Y-75540000D01*
X132460000Y-75540000D01*
X132460000Y-75270000D01*
X132460000Y-75000000D01*
X132730000Y-75000000D01*
X133000000Y-75000000D01*
X133000000Y-74730000D01*
X133000000Y-74460000D01*
X133270000Y-74460000D01*
X133540000Y-74460000D01*
X133540000Y-74190000D01*
X133540000Y-73920000D01*
X133270000Y-73920000D01*
X133000000Y-73920000D01*
X133000000Y-73390000D01*
X133000000Y-72860000D01*
X133270000Y-72860000D01*
X133540000Y-72860000D01*
X133540000Y-72590000D01*
X133540000Y-72320000D01*
X133810000Y-72320000D01*
X134080000Y-72320000D01*
X134080000Y-73660000D01*
G37*
G36*
X121140000Y-81749673D02*
G01*
X121140000Y-82020000D01*
X121410000Y-82020000D01*
X121680000Y-82020000D01*
X121680000Y-82290000D01*
X121680000Y-82560000D01*
X121140000Y-82560000D01*
X120600000Y-82560000D01*
X120600000Y-82830000D01*
X120600000Y-83100000D01*
X120330000Y-83100000D01*
X120060000Y-83100000D01*
X120060000Y-82830000D01*
X120060000Y-82560000D01*
X120330000Y-82560000D01*
X120600000Y-82560000D01*
X120600000Y-82020000D01*
X120600000Y-81480000D01*
X120870000Y-81480000D01*
X121140000Y-81480000D01*
X121140000Y-81749673D01*
G37*
G36*
X117900000Y-81210000D02*
G01*
X117900000Y-83100000D01*
X116010000Y-83100000D01*
X114120000Y-83100000D01*
X114120000Y-82560000D01*
X114660000Y-82560000D01*
X116010000Y-82560000D01*
X117360000Y-82560000D01*
X117360000Y-81210000D01*
X117360000Y-79860000D01*
X116010000Y-79860000D01*
X114660000Y-79860000D01*
X114660000Y-81210000D01*
X114660000Y-82560000D01*
X114120000Y-82560000D01*
X114120000Y-81210000D01*
X114120000Y-79320000D01*
X116010000Y-79320000D01*
X117900000Y-79320000D01*
X117900000Y-81210000D01*
G37*
D13*
%TO.C,J1*%
X126610000Y-96130000D02*
X127940000Y-96130000D01*
X126610000Y-97460000D02*
X126610000Y-96130000D01*
X129210000Y-96130000D02*
X147050000Y-96130000D01*
X129210000Y-98790000D02*
X129210000Y-96130000D01*
X129210000Y-98790000D02*
X147050000Y-98790000D01*
X147050000Y-98790000D02*
X147050000Y-96130000D01*
%TO.C,J3*%
X149470000Y-96130000D02*
X150800000Y-96130000D01*
X149470000Y-97460000D02*
X149470000Y-96130000D01*
X152070000Y-96130000D02*
X164830000Y-96130000D01*
X152070000Y-98790000D02*
X152070000Y-96130000D01*
X152070000Y-98790000D02*
X164830000Y-98790000D01*
X164830000Y-98790000D02*
X164830000Y-96130000D01*
%TO.C,J2*%
X117466000Y-47870000D02*
X118796000Y-47870000D01*
X117466000Y-49200000D02*
X117466000Y-47870000D01*
X120066000Y-47870000D02*
X142986000Y-47870000D01*
X120066000Y-50530000D02*
X120066000Y-47870000D01*
X120066000Y-50530000D02*
X142986000Y-50530000D01*
X142986000Y-50530000D02*
X142986000Y-47870000D01*
%TO.C,J4*%
X144390000Y-47870000D02*
X145720000Y-47870000D01*
X144390000Y-49200000D02*
X144390000Y-47870000D01*
X146990000Y-47870000D02*
X164830000Y-47870000D01*
X146990000Y-50530000D02*
X146990000Y-47870000D01*
X146990000Y-50530000D02*
X164830000Y-50530000D01*
X164830000Y-50530000D02*
X164830000Y-47870000D01*
%TO.C,J5*%
X162270000Y-68240000D02*
X163600000Y-68240000D01*
X162270000Y-69570000D02*
X162270000Y-68240000D01*
X162270000Y-70840000D02*
X162270000Y-75980000D01*
X162270000Y-70840000D02*
X164870000Y-70840000D01*
X162270000Y-75980000D02*
X167470000Y-75980000D01*
X164870000Y-68240000D02*
X167470000Y-68240000D01*
X164870000Y-70840000D02*
X164870000Y-68240000D01*
X167470000Y-68240000D02*
X167470000Y-75980000D01*
%TO.C,J6*%
X99940000Y-59320000D02*
X99940000Y-61980000D01*
X145720000Y-59320000D02*
X99940000Y-59320000D01*
X145720000Y-59320000D02*
X145720000Y-61980000D01*
X145720000Y-61980000D02*
X99940000Y-61980000D01*
X148320000Y-60650000D02*
X148320000Y-61980000D01*
X148320000Y-61980000D02*
X146990000Y-61980000D01*
%TD*%
M02*
