%TF.GenerationSoftware,KiCad,Pcbnew,9.0.0*%
%TF.CreationDate,2025-03-17T21:04:27+02:00*%
%TF.ProjectId,dragino_esp,64726167-696e-46f5-9f65-73702e6b6963,rev?*%
%TF.SameCoordinates,Original*%
%TF.FileFunction,Soldermask,Top*%
%TF.FilePolarity,Negative*%
%FSLAX46Y46*%
G04 Gerber Fmt 4.6, Leading zero omitted, Abs format (unit mm)*
G04 Created by KiCad (PCBNEW 9.0.0) date 2025-03-17 21:04:27*
%MOMM*%
%LPD*%
G01*
G04 APERTURE LIST*
%ADD10O,1.700000X1.700000*%
%ADD11R,1.700000X1.700000*%
%ADD12C,3.200000*%
G04 APERTURE END LIST*
D10*
%TO.C,J7*%
X101270000Y-86010000D03*
X103810000Y-86010000D03*
X106350000Y-86010000D03*
X108890000Y-86010000D03*
X111430000Y-86010000D03*
X113970000Y-86010000D03*
X116510000Y-86010000D03*
X119050000Y-86010000D03*
X121590000Y-86010000D03*
X124130000Y-86010000D03*
X126670000Y-86010000D03*
X129210000Y-86010000D03*
X131750000Y-86010000D03*
X134290000Y-86010000D03*
X136830000Y-86010000D03*
X139370000Y-86010000D03*
X141910000Y-86010000D03*
X144450000Y-86010000D03*
D11*
X146990000Y-86010000D03*
%TD*%
%TO.C,J1*%
X127940000Y-97460000D03*
D10*
X130480000Y-97460000D03*
X133020000Y-97460000D03*
X135560000Y-97460000D03*
X138100000Y-97460000D03*
X140640000Y-97460000D03*
X143180000Y-97460000D03*
X145720000Y-97460000D03*
%TD*%
D11*
%TO.C,J3*%
X150800000Y-97460000D03*
D10*
X153340000Y-97460000D03*
X155880000Y-97460000D03*
X158420000Y-97460000D03*
X160960000Y-97460000D03*
X163500000Y-97460000D03*
%TD*%
D11*
%TO.C,J2*%
X118796000Y-49200000D03*
D10*
X121336000Y-49200000D03*
X123876000Y-49200000D03*
X126416000Y-49200000D03*
X128956000Y-49200000D03*
X131496000Y-49200000D03*
X134036000Y-49200000D03*
X136576000Y-49200000D03*
X139116000Y-49200000D03*
X141656000Y-49200000D03*
%TD*%
D11*
%TO.C,J4*%
X145720000Y-49200000D03*
D10*
X148260000Y-49200000D03*
X150800000Y-49200000D03*
X153340000Y-49200000D03*
X155880000Y-49200000D03*
X158420000Y-49200000D03*
X160960000Y-49200000D03*
X163500000Y-49200000D03*
%TD*%
D12*
%TO.C,MH1*%
X115240000Y-49200000D03*
%TD*%
D11*
%TO.C,J5*%
X163600000Y-69570000D03*
D10*
X166140000Y-69570000D03*
X163600000Y-72110000D03*
X166140000Y-72110000D03*
X163600000Y-74650000D03*
X166140000Y-74650000D03*
%TD*%
D12*
%TO.C,MH2*%
X113970000Y-97460000D03*
%TD*%
%TO.C,MH3*%
X166040000Y-64440000D03*
%TD*%
D11*
%TO.C,J6*%
X146990000Y-60650000D03*
D10*
X144450000Y-60650000D03*
X141910000Y-60650000D03*
X139370000Y-60650000D03*
X136830000Y-60650000D03*
X134290000Y-60650000D03*
X131750000Y-60650000D03*
X129210000Y-60650000D03*
X126670000Y-60650000D03*
X124130000Y-60650000D03*
X121590000Y-60650000D03*
X119050000Y-60650000D03*
X116510000Y-60650000D03*
X113970000Y-60650000D03*
X111430000Y-60650000D03*
X108890000Y-60650000D03*
X106350000Y-60650000D03*
X103810000Y-60650000D03*
X101270000Y-60650000D03*
%TD*%
D12*
%TO.C,MH4*%
X166040000Y-92380000D03*
%TD*%
M02*
