M48
; DRILL file {KiCad 9.0.0} date 2025-03-17T21:04:18+0200
; FORMAT={-:-/ absolute / metric / decimal}
; #@! TF.CreationDate,2025-03-17T21:04:18+02:00
; #@! TF.GenerationSoftware,Kicad,Pcbnew,9.0.0
; #@! TF.FileFunction,Plated,1,2,PTH
FMAT,2
METRIC
; #@! TA.AperFunction,Plated,PTH,ViaDrill
T1C0.400
; #@! TA.AperFunction,Plated,PTH,ComponentDrill
T2C1.000
%
G90
G05
T1
X120.083Y-50.377
X120.379Y-98.929
X129.066Y-69.398
X130.009Y-79.49
X138.1Y-70.025
X154.97Y-80.08
X157.716Y-80.729
T2
X101.27Y-60.65
X101.27Y-86.01
X103.81Y-60.65
X103.81Y-86.01
X106.35Y-60.65
X106.35Y-86.01
X108.89Y-60.65
X108.89Y-86.01
X111.43Y-60.65
X111.43Y-86.01
X113.97Y-60.65
X113.97Y-86.01
X116.51Y-60.65
X116.51Y-86.01
X118.796Y-49.2
X119.05Y-60.65
X119.05Y-86.01
X121.336Y-49.2
X121.59Y-60.65
X121.59Y-86.01
X123.876Y-49.2
X124.13Y-60.65
X124.13Y-86.01
X126.416Y-49.2
X126.67Y-60.65
X126.67Y-86.01
X127.94Y-97.46
X128.956Y-49.2
X129.21Y-60.65
X129.21Y-86.01
X130.48Y-97.46
X131.496Y-49.2
X131.75Y-60.65
X131.75Y-86.01
X133.02Y-97.46
X134.036Y-49.2
X134.29Y-60.65
X134.29Y-86.01
X135.56Y-97.46
X136.576Y-49.2
X136.83Y-60.65
X136.83Y-86.01
X138.1Y-97.46
X139.116Y-49.2
X139.37Y-60.65
X139.37Y-86.01
X140.64Y-97.46
X141.656Y-49.2
X141.91Y-60.65
X141.91Y-86.01
X143.18Y-97.46
X144.45Y-60.65
X144.45Y-86.01
X145.72Y-49.2
X145.72Y-97.46
X146.99Y-60.65
X146.99Y-86.01
X148.26Y-49.2
X150.8Y-49.2
X150.8Y-97.46
X153.34Y-49.2
X153.34Y-97.46
X155.88Y-49.2
X155.88Y-97.46
X158.42Y-49.2
X158.42Y-97.46
X160.96Y-49.2
X160.96Y-97.46
X163.5Y-49.2
X163.5Y-97.46
X163.6Y-69.57
X163.6Y-72.11
X163.6Y-74.65
X166.14Y-69.57
X166.14Y-72.11
X166.14Y-74.65
M30
