%TF.GenerationSoftware,KiCad,Pcbnew,9.0.0*%
%TF.CreationDate,2025-03-17T21:04:26+02:00*%
%TF.ProjectId,dragino_esp,64726167-696e-46f5-9f65-73702e6b6963,rev?*%
%TF.SameCoordinates,Original*%
%TF.FileFunction,Copper,L2,Bot*%
%TF.FilePolarity,Positive*%
%FSLAX46Y46*%
G04 Gerber Fmt 4.6, Leading zero omitted, Abs format (unit mm)*
G04 Created by KiCad (PCBNEW 9.0.0) date 2025-03-17 21:04:26*
%MOMM*%
%LPD*%
G01*
G04 APERTURE LIST*
%TA.AperFunction,ComponentPad*%
%ADD10O,1.700000X1.700000*%
%TD*%
%TA.AperFunction,ComponentPad*%
%ADD11R,1.700000X1.700000*%
%TD*%
%TA.AperFunction,ViaPad*%
%ADD12C,0.600000*%
%TD*%
%TA.AperFunction,Conductor*%
%ADD13C,0.250000*%
%TD*%
G04 APERTURE END LIST*
D10*
%TO.P,J7,19,Pin_19*%
%TO.N,/CLK!*%
X101270000Y-86010000D03*
%TO.P,J7,18,Pin_18*%
%TO.N,/D0!*%
X103810000Y-86010000D03*
%TO.P,J7,17,Pin_17*%
%TO.N,/D1!*%
X106350000Y-86010000D03*
%TO.P,J7,16,Pin_16*%
%TO.N,DO_A*%
X108890000Y-86010000D03*
%TO.P,J7,15,Pin_15*%
%TO.N,DIO0*%
X111430000Y-86010000D03*
%TO.P,J7,14,Pin_14*%
%TO.N,/0*%
X113970000Y-86010000D03*
%TO.P,J7,13,Pin_13*%
%TO.N,D4*%
X116510000Y-86010000D03*
%TO.P,J7,12,Pin_12*%
%TO.N,SX_TX_ESP_RX*%
X119050000Y-86010000D03*
%TO.P,J7,11,Pin_11*%
%TO.N,SX_RX_ESP_TX*%
X121590000Y-86010000D03*
%TO.P,J7,10,Pin_10*%
%TO.N,CS_A*%
X124130000Y-86010000D03*
%TO.P,J7,9,Pin_9*%
%TO.N,CLK_B*%
X126670000Y-86010000D03*
%TO.P,J7,8,Pin_8*%
%TO.N,DO_A*%
X129210000Y-86010000D03*
%TO.P,J7,7,Pin_7*%
%TO.N,GND*%
X131750000Y-86010000D03*
%TO.P,J7,6,Pin_6*%
%TO.N,1PPS*%
X134290000Y-86010000D03*
%TO.P,J7,5,Pin_5*%
%TO.N,/RX*%
X136830000Y-86010000D03*
%TO.P,J7,4,Pin_4*%
%TO.N,/TX*%
X139370000Y-86010000D03*
%TO.P,J7,3,Pin_3*%
%TO.N,D5*%
X141910000Y-86010000D03*
%TO.P,J7,2,Pin_2*%
%TO.N,DI_B*%
X144450000Y-86010000D03*
D11*
%TO.P,J7,1,Pin_1*%
%TO.N,GND*%
X146990000Y-86010000D03*
%TD*%
%TO.P,J1,1,Pin_1*%
%TO.N,unconnected-(J1-Pin_1-Pad1)*%
X127940000Y-97460000D03*
D10*
%TO.P,J1,2,Pin_2*%
%TO.N,/IOREF*%
X130480000Y-97460000D03*
%TO.P,J1,3,Pin_3*%
%TO.N,/~{RESET}*%
X133020000Y-97460000D03*
%TO.P,J1,4,Pin_4*%
%TO.N,+3.3V*%
X135560000Y-97460000D03*
%TO.P,J1,5,Pin_5*%
%TO.N,+5V*%
X138100000Y-97460000D03*
%TO.P,J1,6,Pin_6*%
%TO.N,GND*%
X140640000Y-97460000D03*
%TO.P,J1,7,Pin_7*%
X143180000Y-97460000D03*
%TO.P,J1,8,Pin_8*%
%TO.N,VCC*%
X145720000Y-97460000D03*
%TD*%
D11*
%TO.P,J3,1,Pin_1*%
%TO.N,/A0*%
X150800000Y-97460000D03*
D10*
%TO.P,J3,2,Pin_2*%
%TO.N,/A1*%
X153340000Y-97460000D03*
%TO.P,J3,3,Pin_3*%
%TO.N,/A2*%
X155880000Y-97460000D03*
%TO.P,J3,4,Pin_4*%
%TO.N,1PPS*%
X158420000Y-97460000D03*
%TO.P,J3,5,Pin_5*%
%TO.N,/SDA{slash}A4*%
X160960000Y-97460000D03*
%TO.P,J3,6,Pin_6*%
%TO.N,/SCL{slash}A5*%
X163500000Y-97460000D03*
%TD*%
D11*
%TO.P,J2,1,Pin_1*%
%TO.N,/SCL{slash}A5*%
X118796000Y-49200000D03*
D10*
%TO.P,J2,2,Pin_2*%
%TO.N,/SDA{slash}A4*%
X121336000Y-49200000D03*
%TO.P,J2,3,Pin_3*%
%TO.N,/AREF*%
X123876000Y-49200000D03*
%TO.P,J2,4,Pin_4*%
%TO.N,GND*%
X126416000Y-49200000D03*
%TO.P,J2,5,Pin_5*%
%TO.N,CLK_B*%
X128956000Y-49200000D03*
%TO.P,J2,6,Pin_6*%
%TO.N,DO_A*%
X131496000Y-49200000D03*
%TO.P,J2,7,Pin_7*%
%TO.N,DI_B*%
X134036000Y-49200000D03*
%TO.P,J2,8,Pin_8*%
%TO.N,CS_A*%
X136576000Y-49200000D03*
%TO.P,J2,9,Pin_9*%
%TO.N,RESET*%
X139116000Y-49200000D03*
%TO.P,J2,10,Pin_10*%
%TO.N,DIO5*%
X141656000Y-49200000D03*
%TD*%
D11*
%TO.P,J4,1,Pin_1*%
%TO.N,DIO2*%
X145720000Y-49200000D03*
D10*
%TO.P,J4,2,Pin_2*%
%TO.N,DIO1*%
X148260000Y-49200000D03*
%TO.P,J4,3,Pin_3*%
%TO.N,D5*%
X150800000Y-49200000D03*
%TO.P,J4,4,Pin_4*%
%TO.N,D4*%
X153340000Y-49200000D03*
%TO.P,J4,5,Pin_5*%
%TO.N,/\u002A3*%
X155880000Y-49200000D03*
%TO.P,J4,6,Pin_6*%
%TO.N,DIO0*%
X158420000Y-49200000D03*
%TO.P,J4,7,Pin_7*%
%TO.N,SX_TX_ESP_RX*%
X160960000Y-49200000D03*
%TO.P,J4,8,Pin_8*%
%TO.N,SX_RX_ESP_TX*%
X163500000Y-49200000D03*
%TD*%
D11*
%TO.P,J5,1,Pin_1*%
%TO.N,DO_A*%
X163600000Y-69570000D03*
D10*
%TO.P,J5,2,Pin_2*%
%TO.N,CLK_A*%
X166140000Y-69570000D03*
%TO.P,J5,3,Pin_3*%
%TO.N,/RST*%
X163600000Y-72110000D03*
%TO.P,J5,4,Pin_4*%
%TO.N,GND*%
X166140000Y-72110000D03*
%TO.P,J5,5,Pin_5*%
%TO.N,CLK_B*%
X163600000Y-74650000D03*
%TO.P,J5,6,Pin_6*%
%TO.N,VCC*%
X166140000Y-74650000D03*
%TD*%
D11*
%TO.P,J6,1,Pin_1*%
%TO.N,+3.3V*%
X146990000Y-60650000D03*
D10*
%TO.P,J6,2,Pin_2*%
%TO.N,/EN*%
X144450000Y-60650000D03*
%TO.P,J6,3,Pin_3*%
%TO.N,/VP*%
X141910000Y-60650000D03*
%TO.P,J6,4,Pin_4*%
%TO.N,/VN*%
X139370000Y-60650000D03*
%TO.P,J6,5,Pin_5*%
%TO.N,/34*%
X136830000Y-60650000D03*
%TO.P,J6,6,Pin_6*%
%TO.N,/35*%
X134290000Y-60650000D03*
%TO.P,J6,7,Pin_7*%
%TO.N,DIO0*%
X131750000Y-60650000D03*
%TO.P,J6,8,Pin_8*%
%TO.N,DIO1*%
X129210000Y-60650000D03*
%TO.P,J6,9,Pin_9*%
%TO.N,DIO2*%
X126670000Y-60650000D03*
%TO.P,J6,10,Pin_10*%
%TO.N,DIO5*%
X124130000Y-60650000D03*
%TO.P,J6,11,Pin_11*%
%TO.N,RESET*%
X121590000Y-60650000D03*
%TO.P,J6,12,Pin_12*%
%TO.N,CLK_A*%
X119050000Y-60650000D03*
%TO.P,J6,13,Pin_13*%
%TO.N,DO_A*%
X116510000Y-60650000D03*
%TO.P,J6,14,Pin_14*%
%TO.N,GND*%
X113970000Y-60650000D03*
%TO.P,J6,15,Pin_15*%
%TO.N,CLK_B*%
X111430000Y-60650000D03*
%TO.P,J6,16,Pin_16*%
%TO.N,/!D2*%
X108890000Y-60650000D03*
%TO.P,J6,17,Pin_17*%
%TO.N,/!D3*%
X106350000Y-60650000D03*
%TO.P,J6,18,Pin_18*%
%TO.N,/!CMD*%
X103810000Y-60650000D03*
%TO.P,J6,19,Pin_19*%
%TO.N,+5V*%
X101270000Y-60650000D03*
%TD*%
D12*
%TO.N,+5V*%
X138100000Y-70025000D03*
%TO.N,/SDA{slash}A4*%
X120378900Y-98928800D03*
%TO.N,DO_A*%
X129066300Y-69398300D03*
%TO.N,DIO0*%
X130009100Y-79489700D03*
%TO.N,SX_TX_ESP_RX*%
X154970200Y-80080100D03*
%TO.N,SX_RX_ESP_TX*%
X157716500Y-80729400D03*
%TO.N,D4*%
X120083200Y-50376700D03*
%TD*%
D13*
%TO.N,GND*%
X117552300Y-48242100D02*
X117771100Y-48023300D01*
X122669500Y-48023300D02*
X124430400Y-48023300D01*
X113970000Y-60650000D02*
X113970000Y-53345200D01*
X122669500Y-56282500D02*
X122860000Y-56473000D01*
X122860000Y-56473000D02*
X122860000Y-86471300D01*
X143180000Y-97460000D02*
X143180000Y-96283300D01*
X122860000Y-86471300D02*
X124045000Y-87656300D01*
X117771100Y-48023300D02*
X122669500Y-48023300D01*
X125239300Y-48832200D02*
X125239300Y-49200000D01*
X146990000Y-86010000D02*
X146990000Y-92473300D01*
X113970000Y-53345200D02*
X117552300Y-49762900D01*
X124430400Y-48023300D02*
X125239300Y-48832200D01*
X126416000Y-49200000D02*
X125239300Y-49200000D01*
X122669500Y-48023300D02*
X122669500Y-56282500D01*
X146990000Y-92473300D02*
X143180000Y-96283300D01*
X117552300Y-49762900D02*
X117552300Y-48242100D01*
X130103700Y-87656300D02*
X131750000Y-86010000D01*
X124045000Y-87656300D02*
X130103700Y-87656300D01*
%TO.N,+5V*%
X138100000Y-97460000D02*
X138100000Y-70025000D01*
%TO.N,DI_B*%
X136050400Y-47994600D02*
X137110300Y-47994600D01*
X137876500Y-48760800D02*
X137876500Y-54603300D01*
X135212700Y-48832300D02*
X136050400Y-47994600D01*
X144450000Y-86010000D02*
X143273300Y-86010000D01*
X140640000Y-86411600D02*
X141415100Y-87186700D01*
X143273300Y-86377800D02*
X143273300Y-86010000D01*
X141415100Y-87186700D02*
X142464400Y-87186700D01*
X142464400Y-87186700D02*
X143273300Y-86377800D01*
X134036000Y-49200000D02*
X135212700Y-49200000D01*
X137110300Y-47994600D02*
X137876500Y-48760800D01*
X137876500Y-54603300D02*
X140640000Y-57366800D01*
X135212700Y-49200000D02*
X135212700Y-48832300D01*
X140640000Y-57366800D02*
X140640000Y-86411600D01*
%TO.N,/SDA{slash}A4*%
X121336000Y-54546500D02*
X120378900Y-55503600D01*
X120378900Y-55503600D02*
X120378900Y-98928800D01*
X121336000Y-49200000D02*
X121336000Y-54546500D01*
%TO.N,DO_A*%
X130480000Y-51392700D02*
X131496000Y-50376700D01*
X129066300Y-69398300D02*
X130480000Y-67984600D01*
X129210000Y-69542000D02*
X129066300Y-69398300D01*
X130480000Y-67984600D02*
X130480000Y-51392700D01*
X131496000Y-49200000D02*
X131496000Y-50376700D01*
X129210000Y-86010000D02*
X129210000Y-69542000D01*
%TO.N,CLK_B*%
X127846700Y-83656600D02*
X126670000Y-84833300D01*
X126670000Y-86010000D02*
X126670000Y-84833300D01*
X127846700Y-51486000D02*
X127846700Y-83656600D01*
X128956000Y-50376700D02*
X127846700Y-51486000D01*
X128956000Y-49200000D02*
X128956000Y-50376700D01*
%TO.N,CS_A*%
X135560000Y-74896000D02*
X135560000Y-51392700D01*
X129701100Y-87196000D02*
X130480000Y-86417100D01*
X124130000Y-86010000D02*
X125306700Y-86010000D01*
X135560000Y-51392700D02*
X136576000Y-50376700D01*
X130480000Y-79976000D02*
X135560000Y-74896000D01*
X136576000Y-49200000D02*
X136576000Y-50376700D01*
X130480000Y-86417100D02*
X130480000Y-79976000D01*
X126125000Y-87196000D02*
X129701100Y-87196000D01*
X125306700Y-86377700D02*
X126125000Y-87196000D01*
X125306700Y-86010000D02*
X125306700Y-86377700D01*
%TO.N,DIO0*%
X131750000Y-61826700D02*
X131750000Y-77748800D01*
X131750000Y-60650000D02*
X131750000Y-61826700D01*
X131750000Y-77748800D02*
X130009100Y-79489700D01*
%TO.N,SX_TX_ESP_RX*%
X160960000Y-50376700D02*
X154970200Y-56366500D01*
X154970200Y-56366500D02*
X154970200Y-80080100D01*
X160960000Y-49200000D02*
X160960000Y-50376700D01*
%TO.N,SX_RX_ESP_TX*%
X157716500Y-56160200D02*
X157716500Y-80729400D01*
X163500000Y-50376700D02*
X157716500Y-56160200D01*
X163500000Y-49200000D02*
X163500000Y-50376700D01*
%TO.N,D4*%
X116510000Y-84833300D02*
X117686700Y-83656600D01*
X117686700Y-52773200D02*
X120083200Y-50376700D01*
X117686700Y-83656600D02*
X117686700Y-52773200D01*
X116510000Y-86010000D02*
X116510000Y-84833300D01*
%TO.N,D5*%
X150800000Y-50376700D02*
X145654300Y-55522400D01*
X150800000Y-49200000D02*
X150800000Y-50376700D01*
X141910000Y-66588500D02*
X141910000Y-86010000D01*
X145654300Y-55522400D02*
X145654300Y-62844200D01*
X145654300Y-62844200D02*
X141910000Y-66588500D01*
%TO.N,VCC*%
X166140000Y-74650000D02*
X166140000Y-75826700D01*
X145720000Y-96246700D02*
X145720000Y-97460000D01*
X166140000Y-75826700D02*
X145720000Y-96246700D01*
%TO.N,+3.3V*%
X135560000Y-97460000D02*
X136736700Y-97460000D01*
X145813300Y-88483800D02*
X145813300Y-63588700D01*
X136736700Y-97827800D02*
X137545600Y-98636700D01*
X138613900Y-98636700D02*
X139370000Y-97880600D01*
X146990000Y-62412000D02*
X146990000Y-61826700D01*
X145813300Y-63588700D02*
X146990000Y-62412000D01*
X137545600Y-98636700D02*
X138613900Y-98636700D01*
X136736700Y-97460000D02*
X136736700Y-97827800D01*
X139370000Y-97880600D02*
X139370000Y-94927100D01*
X139370000Y-94927100D02*
X145813300Y-88483800D01*
X146990000Y-60650000D02*
X146990000Y-61826700D01*
%TD*%
M02*
